<svg xmlns="http://www.w3.org/2000/svg" version="1.1" xmlns:xlink="http://www.w3.org/1999/xlink" xmlns:svgjs="http://svgjs.com/svgjs" width="1280" height="1280"><svg version="1.1" viewBox="0 0 1600 1600" width="1280" height="1280" xmlns="http://www.w3.org/2000/svg">
<path transform="translate(0)" d="m0 0h1600v1600h-1600v-1600z" fill="#E7E5DC"></path>
<path transform="translate(601 638)" d="m0 0c0.798 2.72e-4 1.6 5.44e-4 2.42 8.24e-4 12.1 0.019 24.1 0.337 36.1 2.19 0.678 0.102 1.36 0.204 2.05 0.309 26.9 4.19 52.4 13.4 74.9 28.7 1.43 0.951 1.43 0.951 2.89 1.92 5.26 3.56 5.26 3.56 7.11 5.08v2c0.581 0.266 1.16 0.531 1.76 0.805 6.16 3.29 10.9 8.78 15.4 14.1 1.99 2.32 4.07 4.54 6.15 6.77 9.36 10.4 16.5 21.9 22.7 34.4 0.458 0.898 0.458 0.898 0.925 1.81 20.2 39.7 22.9 90.8 9.19 133-9.11 27-23.3 53.1-45.1 72-0.99 0.33-1.98 0.66-3 1-0.33 0.99-0.66 1.98-1 3-1.82 1.63-3.62 3.1-5.56 4.56-0.578 0.436-1.16 0.872-1.75 1.32-24.1 17.9-50.8 27.3-80.2 32.7-0.99 0.185-0.99 0.185-2 0.374-12.6 2.23-25.4 2.22-38.2 2.24-3.05 0.00962-6.09 0.0407-9.14 0.0723-42.8 0.229-90.8-10.1-123-40.3v-2h-2v-2c-0.639-0.268-1.28-0.536-1.94-0.812-2.06-1.19-2.06-1.19-3.06-4.19h-3c-0.402-1.21-0.402-1.21-0.812-2.44-0.392-0.846-0.784-1.69-1.19-2.56-0.99-0.33-1.98-0.66-3-1v-2h-2v-2h-2c-0.66-1.65-1.32-3.3-2-5h-2c-0.66-1.65-1.32-3.3-2-5h-2c-0.66-1.65-1.32-3.3-2-5h-2c-0.841-1.43-1.67-2.87-2.5-4.31-0.464-0.801-0.928-1.6-1.41-2.43-1.09-2.26-1.09-2.26-1.09-5.26h-2c-3-5.62-3-5.62-3-9h-2c-0.33-1.98-0.66-3.96-1-6h-2c-8.39-24.2-13.4-46.9-13.4-72.6 2.11e-4 -0.777 4.23e-4 -1.55 6.41e-4 -2.35 0.0533-19.8 3.12-38.3 9.37-57.1 0.282-0.929 0.565-1.86 0.855-2.82 5.93-18.2 17.3-34.4 29.1-49.2 0.706-0.915 1.41-1.83 2.14-2.77 0.717-0.92 1.43-1.84 2.17-2.79 0.656-0.847 1.31-1.69 1.99-2.57 0.561-0.617 1.12-1.23 1.7-1.87h2c0.227-0.557 0.454-1.11 0.688-1.69 5.02-8.85 19.8-21 29.6-24 0.566-0.103 1.13-0.206 1.71-0.312v-2c36-17.3 36-17.3 50-19 1.27-0.458 1.27-0.458 2.56-0.926 4.5-1.4 8.97-2.01 13.6-2.64 0.882-0.126 1.76-0.251 2.67-0.381 12.2-1.7 24.3-2.26 36.6-2.24z" fill="#FBFDFD"></path>
<path transform="translate(1207 645)" d="m0 0c1.26 0.0319 1.26 0.0319 2.55 0.0644 1.79 0.0463 3.58 0.0952 5.36 0.147 2.67 0.0766 5.35 0.145 8.02 0.211 7.85 0.205 15.7 0.477 23.5 1.02 11.9 0.783 23.9 0.668 35.8 0.661 2.04-7.83e-4 4.07 6.66e-4 6.11 0.00243 19.1 0.00973 38.2-0.403 57.3-1.25 17-0.749 33.8-1.4 50.8 0.0625 1.04 0.0891 2.09 0.178 3.17 0.27 29.6 2.69 64.5 9.13 85.8 31.7 0.813 0.851 1.63 1.7 2.46 2.58 19.4 21 26.8 46.6 25.7 74.9-1.16 19.9-8.01 40.1-22.1 54.5h-2c-0.66 1.32-1.32 2.64-2 4h-2c-0.33 0.99-0.66 1.98-1 3-29.2 27.6-74.9 33.1-113 33.2-1.05 0.00817-1.05 0.00817-2.13 0.0165-11 0.0637-21.8-0.864-32.7-2.27-0.07 9.24-0.123 18.5-0.155 27.7-0.0155 4.29-0.0366 8.59-0.0709 12.9-0.033 4.16-0.0506 8.31-0.0583 12.5-0.00547 1.57-0.0161 3.14-0.0326 4.72-0.5 20.1-0.5 20.1 7.73 37.7 0.525 0.507 1.05 1.01 1.59 1.54 0.908 0.908 1.82 1.82 2.75 2.75 7.25 5.02 14.9 6.81 23.5 8.12 4.39 0.706 7.94 1.75 11.7 4.13 2.79 3.93 2.55 8.36 2 13-2.08 4.54-2.08 4.54-5 6-1.39 0.0961-2.79 0.131-4.19 0.133-0.866 0.00201-1.73 0.00403-2.62 0.0061-0.943-0.00459-1.89-0.00918-2.86-0.0139-0.983-0.00266-1.97-0.00532-2.98-0.00806-9.88-0.0619-19.7-0.497-29.6-0.973-33.6-1.59-67-1.53-101 0.144-10.1 0.496-20.2 0.852-30.3 0.962-1.55 0.032-1.55 0.032-3.12 0.0647-0.955 0.00443-1.91 0.00886-2.89 0.0134-0.844 0.00935-1.69 0.0187-2.56 0.0283-2.68-0.439-3.52-1.25-5.18-3.36-1.34-2.69-1.24-4.88-1.31-7.88-0.0374-1.05-0.0748-2.1-0.113-3.18 0.533-3.69 1.49-4.71 4.43-6.95 3.7-1.92 6.67-2.22 10.8-2.12 0.976 0.018 1.95 0.0361 2.96 0.0547 1.1 0.0348 1.1 0.0348 2.23 0.0703v-2c1.41-0.508 2.83-1.01 4.25-1.5 1.18-0.418 1.18-0.418 2.39-0.844 2.36-0.656 2.36-0.656 6.36-0.656v-2c0.969-0.454 1.94-0.908 2.94-1.38 3.13-1.28 3.13-1.28 4.06-3.62h2c0.289-0.722 0.578-1.44 0.875-2.19 0.697-1.74 1.4-3.48 2.13-5.21 4.34-11.3 3.28-23.9 3.26-35.8 0.00271-2.25 0.00628-4.5 0.0106-6.75 0.00909-6.09 0.00559-12.2-7.58e-4 -18.3-0.00508-6.39-3.64e-4 -12.8 0.00277-19.2 0.00387-11.4-0.00233-22.8-0.0125-34.2-0.00894-10.3-0.00738-20.7 0.00184-31 0.0107-12 0.0147-24 0.00878-36-0.00311-6.35-0.00355-12.7 0.00307-19.1 0.00579-5.97 0.00175-11.9-0.00979-17.9-0.00264-2.19-0.0019-4.37 0.00253-6.56 0.00549-2.99-0.00142-5.99-0.0114-8.98 0.00669-1.29 0.00669-1.29 0.0135-2.6-0.0381-5.95-0.92-11.5-2.27-17.3h-2c-0.495-1.98-0.495-1.98-1-4h-2v-2c-1.32-0.33-2.64-0.66-4-1v-2c-0.639-0.103-1.28-0.206-1.94-0.312-3.06-0.688-3.06-0.688-6.75-2.06-3.22-1.13-6.35-1.82-9.72-2.31-0.794-0.116-1.59-0.231-2.41-0.35-1.6-0.221-3.2-0.425-4.8-0.608-3.97-0.549-6.09-1.14-9.4-3.54-2.42-3.43-2.57-5.28-2.42-9.44 0.0219-1.13 0.0438-2.25 0.0664-3.41 0.371-2.96 0.371-2.96 2.37-5.96 4.06-1.48 8.29-1.04 12.5-0.914z" fill="#FBFDFD"></path>
<path transform="translate(996 639)" d="m0 0c8.97 5.82 12.3 21.7 15.9 31.4 0.574 1.52 1.15 3.04 1.72 4.56 1.12 2.96 2.24 5.91 3.35 8.87 1.8 4.78 3.64 9.55 5.49 14.3 0.474 1.22 0.949 2.45 1.44 3.71 1.25 3.18 2.57 6.33 3.89 9.48 2.9 6.95 5.7 13.9 8.49 20.9 0.803 2.01 1.61 4.02 2.41 6.03 0.53 1.33 1.06 2.65 1.59 3.98 1.44 3.6 2.88 7.2 4.33 10.8 3.24 8.04 6.41 16.1 9.52 24.2 8.47 22 17.3 43.9 26 65.8 1.67 4.17 3.34 8.35 5.01 12.5 4 10 8.02 20 12 30 2.08 5.18 4.15 10.4 6.2 15.6 1.17 2.96 2.34 5.91 3.52 8.86 0.524 1.32 1.04 2.64 1.56 3.96 4.08 10.5 9.31 23.3 19 29.8v2c0.722 0.278 1.44 0.557 2.19 0.844 3.54 1.46 6.91 3.19 10.3 4.94 5.84 2.85 11.1 3.83 17.5 4.66 2.96 0.562 2.96 0.562 5.96 2.56v2h2c2.42 4.27 2.04 7.98 1.68 12.7-0.887 3.01-2.04 3.67-4.68 5.3-2.07 0.372-2.07 0.372-4.35 0.363-1.34 9.67e-4 -1.34 9.67e-4 -2.7 0.00195-1.49-0.0261-1.49-0.0261-3.01-0.0527-1.61-0.0126-1.61-0.0126-3.25-0.0254-9.86-0.135-19.7-0.649-29.5-1.15-32.5-1.64-64.6-1.23-97.1 0.138-11.4 0.475-22.7 0.949-34.1 1.04-1.53 0.0261-1.53 0.0261-3.09 0.0527-1.35-9.67e-4 -1.35-9.67e-4 -2.73-0.00195-0.749 0.00298-1.5 0.00596-2.27 0.00903-2.48-0.481-3.36-1.43-4.92-3.37-1-2.83-1.16-5.51-1.19-8.5-0.0142-0.753-0.0284-1.51-0.043-2.28 0.264-2.54 0.862-4.07 2.23-6.22 2.97-1.98 3.78-2.27 7.13-2.49 0.803-0.0633 1.61-0.127 2.43-0.192 0.845-0.063 1.69-0.126 2.56-0.191 7.08-0.617 12.6-1.68 18.9-5.12h2v-2h2v-2c0.66-0.33 1.32-0.66 2-1 4.63-11.6-2.57-26.3-7-37-0.384-0.932-0.769-1.86-1.17-2.83-1.61-3.89-3.21-7.78-4.83-11.7-0.388-0.941-0.776-1.88-1.18-2.85-0.352-0.848-0.703-1.7-1.07-2.57-0.763-2.09-0.763-2.09-0.763-4.09h-102c-0.99 2.97-1.98 5.94-3 9-0.724 1.82-1.47 3.64-2.25 5.44-2.24 5.3-4.39 10.6-6.5 16-0.306 0.769-0.612 1.54-0.927 2.33-2.69 6.89-3.47 12.7-3.39 20 0.00451 0.788 0.00902 1.58 0.0137 2.39 0.0117 1.93 0.0296 3.87 0.0488 5.8h2c0.247 0.784 0.495 1.57 0.75 2.38 1.45 3.04 2.19 3.45 5.25 4.62 0.603 0.331 1.21 0.661 1.83 1 2.41 1.11 4.42 1.46 7.05 1.78 1.38 0.18 1.38 0.18 2.79 0.363 1.93 0.237 3.86 0.474 5.8 0.711 1.38 0.18 1.38 0.18 2.79 0.363 0.839 0.102 1.68 0.205 2.54 0.311 2.2 0.471 2.2 0.471 5.2 2.47 0.994 2.98 1.26 5.25 1.38 8.38 0.049 0.936 0.098 1.87 0.148 2.84-0.767 4.09-2.13 5.4-5.52 7.79-3.29 0.667-6.47 0.562-9.81 0.438-1.45-0.0261-1.45-0.0261-2.93-0.0527-7.01-0.175-14-0.738-20.9-1.38-19.4-1.8-38.7-1.3-58.1 0.288-5.92 0.477-11.8 0.853-17.8 1.02-1.13 0.0374-2.26 0.0748-3.42 0.113-3.65-0.523-4.77-1.53-6.97-4.43-0.809-4.06-0.642-7.92 0-12 2.96-4.36 5.97-5.77 11-7 1.12-0.189 1.12-0.189 2.25-0.383 6.63-1.14 11.9-3.35 17.7-6.62 0.908-0.454 1.82-0.908 2.75-1.38 3.79-2.74 7.15-6.43 9.25-10.6h2c0.267-0.741 0.534-1.48 0.809-2.25 1.17-2.69 2.44-4.53 4.25-6.82 5.2-7.22 8.37-15.5 11.9-23.6 1.31-2.91 2.74-5.74 4.24-8.56 0.873-1.91 1.37-3.75 1.82-5.79h2c0.102-0.838 0.204-1.68 0.309-2.54 0.773-3.87 2.15-7.26 3.75-10.8 0.282-0.641 0.563-1.28 0.854-1.94 0.689-1.56 1.39-3.12 2.08-4.68h2c0.122-1.2 0.122-1.2 0.246-2.42 0.974-4.62 2.82-8.56 4.82-12.8 0.826-1.8 1.65-3.6 2.48-5.4 0.415-0.901 0.831-1.8 1.26-2.73 1.74-3.8 3.45-7.61 5.14-11.4 0.318-0.714 0.635-1.43 0.962-2.16 3.24-7.31 6.42-14.6 9.6-22 3.58-8.26 7.21-16.5 11.1-24.6 2.39-5.08 4.53-10.2 6.44-15.4 1.28-3.03 2.64-6.01 4-9 0.49-1.08 0.98-2.17 1.48-3.29 0.781-1.72 0.781-1.72 1.58-3.46 0.486-1.07 0.972-2.13 1.47-3.23 1.46-3.02 1.46-3.02 2.95-5.39 1.99-3.46 3.29-7.06 4.64-10.8 2.79-7.64 2.79-7.64 3.88-9.81h2c0.121-0.878 0.242-1.76 0.367-2.66 1.63-8.59 6.18-16.6 9.9-24.5 2.57-5.45 4.98-11 7.34-16.5 1.17-2.73 2.37-5.33 3.93-7.87 1.84-3.14 2.96-6.45 4.15-9.88 2.12-5.82 4.48-11.4 7.31-16.9 0.308-0.628 0.615-1.26 0.932-1.9 5.19-9.76 18-10.2 27.6-6.54z" fill="#FBFDFD"></path>
<path transform="translate(654,677)" d="m0 0c1.06 0.799 1.06 0.799 2.14 1.61 5.71 4.58 9.17 10.1 12.9 16.4 0.66 0.99 1.32 1.98 2 3v4h2c0.242 0.678 0.485 1.36 0.734 2.05 0.335 0.931 0.67 1.86 1.02 2.82 0.325 0.905 0.65 1.81 0.984 2.74 0.704 1.88 1.42 3.76 2.19 5.61 2.56 6.16 4.48 12.3 6.07 18.8 0.382 1.55 0.382 1.55 0.772 3.12 2.83 11.8 4.65 23.8 6.23 35.9 0.119 0.85 0.237 1.7 0.359 2.57 6.18 45.2 1.44 94.7-14.4 137-0.422 1.16-0.843 2.32-1.28 3.52-2.96 7.62-6.9 14.9-11.7 21.5h-2c-0.241 0.576-0.482 1.15-0.73 1.75-1.51 2.69-3.26 4.29-5.58 6.32-0.759 0.672-1.52 1.34-2.3 2.04-6.15 4.9-6.15 4.9-9.39 4.9v2c-24.8 10.1-50.4 12.5-76 3-4.48-2.07-8.75-4.49-13-7v-2c-0.577-0.268-1.15-0.536-1.75-0.812-2.31-1.22-4.27-2.49-6.25-4.19v-2h-2v-2h-2c-25.8-33.7-29.2-81.5-29.2-122-0.00217-3.61-0.0203-7.21-0.0393-10.8-0.0497-19.7 0.689-39.2 4.91-58.5 0.261-1.22 0.521-2.43 0.79-3.69 2.41-10.9 5.52-21.3 9.52-31.7 0.301-0.795 0.603-1.59 0.913-2.41 4.32-11.2 9.75-20.9 18.1-29.6 0.99-0.33 1.98-0.66 3-1 0.495-1.49 0.495-1.49 1-3 2.56-1.19 2.56-1.19 5-2v-2c30.5-16.3 68.7-18.4 97 4z" fill="#E7E5DC"></path>
<path transform="translate(305 645)" d="m0 0c4.6 1.39 9.23 2.7 13.9 4.02 0.878 0.252 1.76 0.504 2.66 0.764 5.43 1.56 10.9 3.04 16.4 4.41 1.86 0.641 1.86 0.641 3.86 2.64 0.981 3.66 1.2 7.27 1.37 11.1 0.0851 1.8 0.0851 1.8 0.172 3.63 0.0573 1.29 0.115 2.58 0.174 3.91 0.063 1.35 0.126 2.7 0.19 4.06 0.167 3.56 0.33 7.12 0.492 10.7 0.258 5.67 0.521 11.3 0.786 17 0.091 1.96 0.179 3.92 0.267 5.88 0.326 7.02 0.793 14 1.55 21-0.00205 3.15-0.52 5.05-2 7.82-3.56 2.37-5.28 2.3-9.5 2.31-1.14 0.0168-2.29 0.0335-3.47 0.0508-3.03-0.363-3.03-0.363-4.81-1.46-1.75-2.72-2.41-5.46-3.22-8.59-1.42-5.25-2.95-10.3-5-15.3-0.312-0.83-0.624-1.66-0.945-2.52-2.57-6.58-5.7-12.7-9.12-18.9-0.424-0.769-0.847-1.54-1.28-2.33-2.28-4.05-4.72-7.61-7.65-11.2v-2h-2c-0.979-1.13-1.91-2.31-2.81-3.5-7.01-8.22-16.8-13.2-27.2-15.5-0.92-0.256-0.92-0.256-1.86-0.517-12.8-2.89-27.6-0.986-38.7 5.7-0.806 0.53-1.61 1.06-2.44 1.61-2 1.21-2 1.21-4 1.21v2h-2v2h-2c-0.371 0.773-0.371 0.773-0.75 1.56-0.992 1.93-2.07 3.82-3.19 5.69-6.34 11.1-6.5 21.4-4.06 33.8 3.94 13 14.3 22.5 25.2 29.9 0.74 0.514 1.48 1.03 2.24 1.56 6.14 4.25 12.3 8.4 18.6 12.5 1.43 0.963 1.43 0.963 2.88 1.95 3.4 2.24 6.87 4.35 10.4 6.43 0.663 0.396 1.33 0.793 2.01 1.2 2.79 1.67 5.58 3.33 8.38 4.99 2.46 1.47 4.91 2.95 7.36 4.43 0.562 0.335 1.12 0.671 1.7 1.02 11 6.6 21.2 14 31.3 22 0.994 0.779 1.99 1.56 3.01 2.36 11.7 9.26 11.7 9.26 15 12.6v2c0.619 0.247 1.24 0.495 1.88 0.75 2.48 1.46 3.08 2.63 4.12 5.25h2c16.5 18.9 19.4 41.8 18 66-1.99 22.8-11.7 44-28 60-0.781 0.779-1.56 1.56-2.37 2.36-13.5 12.8-30.3 21.1-47.9 26.9-0.689 0.234-1.38 0.468-2.09 0.71-14.8 4.61-30.1 5.54-45.5 5.43-2.75-0.0161-5.5-1.56e-5 -8.24 0.019-21.4 0.0249-41-4.49-61-11.7-13.7-4.86-27.8-8.65-42.2-11-2.7-0.738-2.7-0.738-4.7-3.74-0.242-2.66-0.37-5.23-0.411-7.89-0.0198-0.804-0.0396-1.61-0.06-2.44-0.0633-2.66-0.113-5.33-0.162-7.99-0.0412-1.86-0.0832-3.71-0.126-5.57-0.11-4.89-0.209-9.79-0.306-14.7-0.0999-4.95-0.212-9.9-0.322-14.8-0.426-19.4-0.426-19.4-0.577-28.6-0.0327-1.77-0.0801-3.53-0.129-5.3-0.13-6.39-0.13-6.39 2.09-9.24 5.26-2.52 9.16-2.81 14.8-1.69 4.93 3.41 5.63 7.65 7.25 13.2 5.01 16.2 11.3 32.5 22.2 45.7 1.8 2.33 1.8 2.33 1.8 4.33h2c1.45 1.47 1.45 1.47 3.12 3.5 7.75 9.03 16 15.9 25.9 22.5l2.67 1.83c6.37 4.11 13 6.23 20.3 8.17v2c27.7 0.806 27.7 0.806 52-11 1.38-1.63 2.74-3.28 4-5h2c0.268-0.681 0.536-1.36 0.812-2.06 0.85-2.1 1.75-4.18 2.69-6.25 2.75-6.75 3.87-12.9 3.81-20.1-0.00846-1.12-0.00846-1.12-0.0171-2.27-0.124-5.62-0.912-10.2-3.3-15.3-0.449-1.07-0.897-2.14-1.36-3.25-5.88-13.6-18.2-24.5-31.6-30.8v-2c-0.724-0.268-1.45-0.536-2.2-0.812-2.79-1.18-5.15-2.55-7.68-4.2-1.37-0.884-1.37-0.884-2.77-1.79-0.961-0.624-1.92-1.25-2.91-1.89-6.76-4.35-13.5-8.61-20.5-12.6-3.82-2.23-7.57-4.56-11.3-6.9-1-0.625-1-0.625-2.02-1.26-3-1.88-5.96-3.79-8.89-5.79-2.64-1.88-2.64-1.88-5.71-2.76-1.35-1.32-2.68-2.66-4-4-1.98-1.55-3.98-3.07-6-4.56-1.03-0.764-2.06-1.53-3.12-2.32-1.73-1.28-3.48-2.54-5.25-3.77-0.536-0.445-1.07-0.889-1.62-1.35v-2c-0.557-0.247-1.11-0.495-1.69-0.75-2.74-1.48-4.99-3.18-7.31-5.25v-2c-0.866-0.371-0.866-0.371-1.75-0.75-2.58-1.43-4.31-3.03-6.25-5.25v-2c-0.578-0.206-1.16-0.413-1.75-0.625-3.09-1.89-4.44-4.28-6.25-7.38v-2h-2c-12.3-22.9-12.3-47.8-5.62-72.4 2.8-8.57 7.34-17.3 12.6-24.6h2c0.66-1.65 1.32-3.3 2-5h2c0.248-0.557 0.495-1.11 0.75-1.69 3.24-5.99 8.12-10 13.2-14.3 0.719-0.642 1.44-1.28 2.18-1.95 9.71-8.33 21.8-13.8 33.8-18.1 0.713-0.263 1.43-0.526 2.16-0.797 5.63-1.89 11.4-2.89 17.2-3.83 0.766-0.123 1.53-0.246 2.32-0.373 27.8-4.21 54.8-3.01 81.6 5.17z" fill="#FBFDFD"></path>
<path transform="translate(0,9)" d="m0 0c2.97 0.495 2.97 0.495 6 1v8h-1c-0.33 3.3-0.66 6.6-1 10l2 1-0.219 1.89c-0.691 6.88-0.891 13.7-0.906 20.6-0.00451 0.853-0.00902 1.71-0.0137 2.58 0.0102 4.48 0.195 8.88 0.615 13.3 0.785 8.74 0.85 17.5 1.02 26.3 0.07 3.44 0.143 6.88 0.219 10.3 0.018 0.836 0.0361 1.67 0.0546 2.53 0.106 4.55 0.244 9.09 0.469 13.6 0.911 18.6 0.895 37.1 0.874 55.7-0.00438 4.77-0.00285 9.55-0.0021 14.3 5.21e-4 8.24-0.00258 16.5-0.00824 24.7-0.00818 11.9-0.0107 23.8-0.012 35.8-0.00218 19.4-0.00881 38.7-0.0183 58.1-0.0092 18.8-0.0163 37.5-0.0205 56.3-2.63e-4 1.16-5.25e-4 2.32-7.96e-4 3.51-0.00131 5.82-0.00257 11.6-0.00381 17.5-0.00962 44.8-0.0252 89.6-0.0457 134-3.17e-4 0.696-6.34e-4 1.39-9.61e-4 2.11-8.44e-4 1.85-0.0017 3.7-0.00255 5.54-0.00164 4.07-7.82e-4 8.14 0 12.2 1.24e-4 0.652 2.48e-4 1.3 3.76e-4 1.98 2.74e-4 1.44 5.49e-4 2.87 8.25e-4 4.31 7.78e-4 4.06 0.00154 8.12 0.00231 12.2 1.66e-4 0.878 3.32e-4 1.76 5.03e-4 2.66 0.0151 80 0.0288 160 0.0372 240 2.07e-4 1.98 2.07e-4 1.98 4.18e-4 3.99 0.00292 27.9 0.00564 55.9 0.00812 83.8 0.00125 14 0.00253 28.1 0.00385 42.1 1.99e-4 2.12 3.97e-4 4.23 5.95e-4 6.35 0.00306 32.6 0.00697 65.2 0.0133 97.8 1.37e-4 0.7 2.74e-4 1.4 4.15e-4 2.12 0.00221 11.3 0.0045 22.6 0.00679 33.9 0.00661 32.5 0.0127 65.1 0.0153 97.6 5.35e-5 0.67 1.07e-4 1.34 1.62e-4 2.03 0.00111 14 2e-3 28.1 0.00261 42.1 2.88e-4 6.58 6.14e-4 13.2 9.62e-4 19.7 6.74e-5 1.29 1.35e-4 2.59 2.04e-4 3.92 0.00118 20.8 0.00582 41.6 0.0118 62.5 0.00589 20.9 0.00813 41.9 0.00667 62.8-7.6e-4 12.4 0.00126 24.9 0.0073 37.3 0.00376 8.31 0.00386 16.6 0.00103 24.9-0.0015 4.73-0.00146 9.46 0.00305 14.2 0.0309 34.4 0.0309 34.4-0.883 48.4-0.276 4.54-0.414 9.07-0.523 13.6-0.0329 1.35-0.0329 1.35-0.0665 2.72-0.0148 0.709-0.0296 1.42-0.0448 2.15-0.0739 3.46-0.15 6.92-0.23 10.4-0.172 7.47-0.338 14.9-0.502 22.4-0.102 4.61-0.207 9.23-0.315 13.8-0.0589 2.58-0.113 5.15-0.168 7.73-0.175 7.75-0.458 15.4-1.39 23.1h2v2h-2v3h2v2l-4 2h2v3c4.25 1.2 8.36 1.11 12.7 1.06 1.79-0.00857 3.59-0.017 5.38-0.0254 0.94-0.0062 1.88-0.0124 2.85-0.0188 18.7-0.118 37.3 0.154 56 0.982l-1 2c-25.3 8.43-53.3 1-80 1v-1591z" fill="#E8E5DE"></path>
<path transform="translate(1386 673)" d="m0 0c0.958 0.353 1.92 0.706 2.9 1.07 1.07 0.398 1.07 0.398 2.16 0.805v2c0.722 0.227 1.44 0.454 2.19 0.688 3.38 1.58 5.37 3.52 7.81 6.31v2h2c16.2 28.9 14.9 66.6 7.19 98.1-4.48 15.5-11.5 28-25.2 36.9-11 5.91-23.1 8.07-35.3 4.88-4.76-1.67-9.49-3.88-12.7-7.88-2.05-6.49-2.29-12.5-2.27-19.3-0.00511-1.1-0.0102-2.2-0.0155-3.34-0.0139-3.63-0.0129-7.26-0.0106-10.9-0.00389-2.54-0.00823-5.07-0.013-7.61-0.00745-5.31-0.00732-10.6-0.00191-15.9 0.00603-6.11-0.00625-12.2-0.0276-18.3-0.0199-5.91-0.0228-11.8-0.0193-17.7-5.11e-4 -2.5-0.0057-5-0.0158-7.5-0.111-31.3-0.111-31.3 6.88-40.5 12.1-11.9 29.9-9.21 44.4-3.81z" fill="#E7E5DD"></path>
<path transform="translate(1518,1596)" d="m0 0h4c2.34 0.312 4.67 0.642 7 1-5.38 2.69-9.24 3.14-15.3 3.13-0.981 0.0014-1.96 0.0028-2.97 0.00425-3.33 0.00352-6.66-1.76e-4 -9.99-0.00376-2.4 0.00104-4.81 0.00252-7.21 0.0044-5.27 0.0031-10.5 0.00305-15.8 3.16e-4 -7.89-0.00408-15.8-0.00242-23.7 3.83e-4 -13.4 0.00461-26.9 0.00445-40.3 0.00172-13.6-0.00275-27.3-0.00333-40.9-0.00126-0.859 1.29e-4 -1.72 2.58e-4 -2.6 3.91e-4 -3.5 5.33e-4 -7 0.00108-10.5 0.00165-32.6 0.0053-65.3 0.00565-97.9 0.00285-1.45-1.24e-4 -1.45-1.24e-4 -2.93-2.51e-4 -1.45-1.24e-4 -1.45-1.24e-4 -2.94-2.51e-4 -29.5-0.00252-59-0.00318-88.5-0.00198-1.97 7.75e-5 -3.95 1.55e-4 -5.92 2.31e-4 -7.93 3.1e-4 -15.9 6.29e-4 -23.8 9.6e-4 -22.2 9.17e-4 -44.3 0.00149-66.5 0.00179-1.01 1.36e-5 -2.02 2.73e-5 -3.06 4.14e-5 -32.2 4.09e-4 -64.4-7.19e-4 -96.5-0.00289-1.57-1.05e-4 -1.57-1.05e-4 -3.16-2.13e-4 -17-0.00115-33.9-0.00236-50.9-0.00359-67.3-0.00486-135-0.00463-202 2.31e-4 -16.9 0.00122-33.9 0.00243-50.8 0.00357-1.04 7.04e-5 -2.09 1.41e-4 -3.16 2.13e-4 -32.1 0.00216-64.3 0.00307-96.4 0.00264-1.01-1.36e-5 -2.02-2.72e-5 -3.06-4.12e-5 -22.1-3.12e-4 -44.3-9.46e-4 -66.4-0.00187-7.92-3.29e-4 -15.8-6.42e-4 -23.8-9.51e-4 -1.97-7.74e-5 -3.94-1.56e-4 -5.91-2.36e-4 -29.5-0.0012-59-1.74e-4 -88.5 0.00235-1.45 1.24e-4 -1.45 1.24e-4 -2.93 2.51e-4 -0.966 8.27e-5 -1.93 1.65e-4 -2.93 2.51e-4 -32.5 0.00275-65.1 0.00175-97.6-0.00353-3.49-5.52e-4 -6.98-0.00109-10.5-0.00161-0.856-1.3e-4 -1.71-2.6e-4 -2.59-3.95e-4 -13.6-0.00198-27.2-5.93e-4 -40.8 0.00216-13.3 0.00264-26.7 0.00173-40-0.00301-7.84-0.00268-15.7-0.00259-23.5 0.00148-5.8 0.00271-11.6 2.84e-4 -17.4-0.00426-2.35-0.00102-4.69-3.15e-4 -7.04 0.00221-3.16 0.00316-6.32 2.85e-4 -9.48-0.00424-0.926 0.00239-1.85 0.00478-2.81 0.00724-6.24-0.0184-6.24-0.0184-7.35-1.13-2.29-0.159-4.58-0.251-6.88-0.316-0.687-0.0208-1.37-0.0416-2.08-0.063-2.2-0.0656-4.4-0.124-6.6-0.183-1.49-0.0432-2.98-0.0868-4.47-0.131-3.66-0.107-7.31-0.209-11-0.307v-1c43.3-0.0306 86.5-0.0612 130-0.0918 0.847-5.99e-4 1.69-0.0012 2.57-0.00181 90.7-0.0642 181-0.128 272-0.192 2.02-0.00142 4.03-0.00285 6.05-0.00427 42.3-0.0299 84.6-0.0598 127-0.0897 21.2-0.015 42.5-0.03 63.7-0.045 3.21-0.00226 6.41-0.00453 9.62-0.00679 49.4-0.0349 98.7-0.0697 148-0.105 1.06-7.51e-4 2.12-0.0015 3.21-0.00227 17.1-0.0121 34.2-0.0242 51.3-0.0363 49.3-0.0349 98.5-0.0697 148-0.105 1.52-0.00107 1.52-0.00107 3.07-0.00217 22.2-0.0157 44.5-0.0314 66.7-0.0471 8.95-0.00632 17.9-0.0126 26.9-0.019 1.47-0.00104 1.47-0.00104 2.97-0.0021 31.6-0.0223 63.1-0.0446 94.7-0.067 31.8-0.0225 63.6-0.045 95.4-0.0674 4.4-0.0031 8.79-0.0062 13.2-0.0093 1.29-9.12e-4 1.29-9.12e-4 2.61-0.00184 13.6-0.00962 27.3-0.0193 40.9-0.029 13.4-0.00952 26.8-0.019 40.2-0.0284 7.86-0.00552 15.7-0.0111 23.6-0.0167 5.84-0.00417 11.7-0.00827 17.5-0.0123 2.34-0.00164 4.69-0.00331 7.03-5e-3 13.3-0.00962 26.7-0.0151 40-0.0131z" fill="#E8E5DF"></path>
<path transform="translate(957,778)" d="m0 0c0.809 1.93 0.809 1.93 1.44 4.44 1.47 5.38 3.43 10.4 5.56 15.6 2.17 5.24 4.19 10.5 5.94 15.9 2.27 6.94 5.03 13.6 8.05 20.3 1.49 3.3 2.02 5.11 2.02 8.83h2c2.09 5.68 3.57 10.9 4 17-1.7 1.7-3.81 1.12-6.07 1.12-0.726-0.0036-1.45-0.00719-2.2-0.0109-1.14 2.19e-4 -1.14 2.19e-4 -2.31 4.43e-4 -2.53-6.99e-4 -5.05-0.00849-7.58-0.0163-1.75-0.00186-3.49-0.00329-5.24-0.00429-4.61-0.00383-9.22-0.0137-13.8-0.0247-4.7-0.0102-9.4-0.0148-14.1-0.0198-9.23-0.0107-18.5-0.0278-27.7-0.0488-0.0994-5.28 0.45-9.1 2.31-14.1 0.429-1.17 0.859-2.33 1.3-3.54 1.39-3.4 1.39-3.4 2.88-6.36 1.73-3.49 3.07-7.07 4.39-10.7 2.12-5.77 4.43-11.4 7.04-16.9 1.25-2.74 2.31-5.52 3.34-8.36 2.62-7.14 5.62-14.1 8.74-21 5.45 0.495 5.45 0.495 11 1 0.66-0.99 1.32-1.98 2-3 2.98-1.15 3.87-1.04 7 0z" fill="#E7E5DC"></path>
<path transform="translate(906 884)" d="m0 0c1.41-0.00263 1.41-0.00263 2.85-0.00531 3.12-0.00441 6.25-0.00148 9.37 0.00189 2.16-6.73e-4 4.33-0.00164 6.49-0.0029 4.54-0.00148 9.08 6.76e-4 13.6 0.00534 5.83 0.00569 11.7 0.00242 17.5-0.00357 4.47-0.00361 8.94-0.00246 13.4 1.28e-4 2.15 6.68e-4 4.3-1.56e-4 6.45-0.00248 3-0.00253 6 0.00132 9.01 0.0069 1.34-0.00304 1.34-0.00304 2.71-0.00613 0.817 0.00282 1.63 0.00564 2.48 0.00854 1.06 5.66e-4 1.06 5.66e-4 2.15 0.00114 1.88 0.126 1.88 0.126 4.88 1.13 2.08 4.05 3.05 8.55 3.44 13.1 0.49 3.43 0.858 4.76 2.46 7.6 2.29 4.42 3.37 8.79 4.36 13.6 0.173 0.797 0.345 1.59 0.523 2.42 0.674 3.18 1.23 6.01 1.23 9.27h-2c-0.33 0.99-0.66 1.98-1 3-0.33-0.99-0.66-1.98-1-3h-3c-0.33 0.99-0.66 1.98-1 3v-5c-1.65 0.66-3.3 1.32-5 2v-2c-1.31 0.282-2.63 0.576-3.94 0.875-1.1 0.244-1.1 0.244-2.21 0.492-2.05 0.462-2.05 0.462-2.85 2.63v-2h-11v-7h-2c-0.33 1.98-0.66 3.96-1 6-2 0.0425-4 0.0408-6 0l-1-1c-1.34 0.322-2.67 0.657-4 1-1.44 0.0777-2.89 0.108-4.33 0.0977-0.799-0.00322-1.6-0.00645-2.42-0.00977-0.825-0.00838-1.65-0.0168-2.5-0.0254-0.84-0.00451-1.68-0.00902-2.55-0.0137-2.07-0.0117-4.14-0.0297-6.2-0.0488-0.33-0.99-0.66-1.98-1-3-1.01-0.124-2.02-0.247-3.06-0.375-3.82-0.606-7.25-1.5-10.9-2.62v-2h-8v-6c3.09-1.76 4.23-2 8-2v-2h8v-3c-2.64-0.33-5.28-0.66-8-1v-3h-6v-3c-0.969 0.0412-1.94 0.0825-2.94 0.125-4.51 0.0185-8.71-1.02-13.1-2.12v2c-4.37 3.67-8.6 3.32-14 3v-7h-1c0.115-1.42 0.243-2.83 0.375-4.25 0.0696-0.789 0.139-1.58 0.211-2.39 0.435-2.48 1.1-4.22 2.41-6.36 3.42-1.71 7.33-1.14 11.1-1.13z" fill="#E7E5DE"></path>
<path transform="translate(1336,848)" d="m0 0c1.5-0.0277 3-0.0467 4.5-0.0625 0.835-0.0116 1.67-0.0232 2.53-0.0352 2.97 0.0977 2.97 0.0977 6.65 0.586 4.14 0.531 8.27 0.711 12.4 0.793 0.744 0.0184 1.49 0.0368 2.26 0.0558 2.35 0.0581 4.71 0.111 7.06 0.163 18.7 0.412 18.7 0.412 26.6 1.5 0.495 4.46 0.495 4.46 1 9-2.64 0.33-5.28 0.66-8 1v3h-5v3h-15c-0.495-1.49-0.495-1.49-1-3-0.33 0.66-0.66 1.32-1 2-3.37 1.87-6.24 3.06-10 4v13h6v7h-6v17h7c0.33 0.66 0.66 1.32 1 2 0.99 0.33 1.98 0.66 3 1v2c2.64 0.33 5.28 0.66 8 1v9c2.97 0.33 5.94 0.66 9 1v6h-5c-0.495 1.49-0.495 1.49-1 3h-3c-0.309 0.804-0.619 1.61-0.938 2.44-1.06 2.56-1.06 2.56-2.06 3.56 2.64 0.99 5.28 1.98 8 3 0.186 1.52 0.186 1.52 0.375 3.06 0.606 3.82 1.5 7.25 2.62 10.9-3.42 0-6.78-0.25-10.2-0.5-1.27-0.0928-2.54-0.186-3.86-0.281-1.46-0.108-1.46-0.108-2.96-0.219-0.33 0.66-0.66 1.32-1 2-11.3-0.979-19.4-5.7-27-14-7.03-10.1-6.44-25-6.33-36.8 0.00307-1.44 0.00494-2.88 0.00568-4.32 0.00455-2.98 0.0188-5.96 0.0412-8.95 0.0285-3.81 0.0392-7.61 0.0437-11.4 0.00517-3.67 0.0197-7.34 0.0344-11 0.00188-0.688 0.00376-1.38 0.0057-2.08 0.00693-1.96 0.0215-3.92 0.0363-5.87 0.00683-1.11 0.0137-2.22 0.0207-3.36 0.15-3.47 0.597-6.82 1.14-10.2z" fill="#E7E5DE"></path>
<path transform="translate(1205,935)" d="m0 0c6.93 0.33 13.9 0.66 21 1 0.33 0.99 0.66 1.98 1 3-1.98 0.66-3.96 1.32-6 2h2 3v3c-3.63 1.65-7.26 3.3-11 5v3h-2c-0.33 1.32-0.66 2.64-1 4-1.07 0.0561-1.07 0.0561-2.16 0.113-5.91 0.406-10.6 1.04-15.8 3.89-1.35 2.7-1.13 4.86-1.12 7.88-0.00258 1.05-0.00516 2.1-0.00781 3.18 0.0446 3.16 0.0446 3.16 1.13 6.95h77c0.33 1.32 0.66 2.64 1 4h-4c0.639 0.247 1.28 0.495 1.94 0.75 2.06 1.25 2.06 1.25 2.81 3.38 0.0825 0.619 0.165 1.24 0.25 1.88-2.71 0.902-4.24 1.12-7.01 1.11-0.801-7.55e-5 -1.6-1.51e-4 -2.43-2.29e-4 -0.859-0.00516-1.72-0.0103-2.6-0.0156-0.884-0.00141-1.77-0.00283-2.68-0.00429-2.82-0.0056-5.64-0.0181-8.47-0.0309-1.91-0.00502-3.83-0.00958-5.74-0.0137-4.69-0.011-9.38-0.0283-14.1-0.0488v6c-7.55 3.78-19.8 2.4-28 2-0.33-0.33-0.66-0.66-1-1-1.49-0.0629-2.99-0.0593-4.49-0.0273-0.929 0.0135-1.86 0.0271-2.82 0.041-1.49 0.0242-1.49 0.0242-3.01 0.0488-8.14 0.0789-15.7-0.183-23.7-2.06v-2c-2.31-0.33-4.62-0.66-7-1-0.33-0.99-0.66-1.98-1-3h-13v3h-6c0.33-1.32 0.66-2.64 1-4-5.63-0.098-11.1-0.0435-16.8 0.562-4.35 0.448-7.96 0.241-12.2-0.562h-3v-2h-10v3h-2v-3h-18l2-1c-0.33-0.66-0.66-1.32-1-2-0.495-1.49-0.495-1.49-1-3 2.78-1.39 5.04-1.09 8.14-1.06 1.23 0.00773 2.47 0.0155 3.74 0.0234 2.61 0.0259 5.21 0.052 7.82 0.0781 1.86 0.0116 1.86 0.0116 3.75 0.0234 1.13 0.0116 2.27 0.0232 3.44 0.0352 2.85-0.0895 5.33-0.528 8.11-1.1 1.55-0.0147 3.1 0.0276 4.64 0.121 0.894 0.0486 1.79 0.0972 2.71 0.147 0.957 0.0558 1.91 0.112 2.9 0.169 8.83 0.444 17.7 0.704 26.5 0.75 1.08 0.0128 2.15 0.0256 3.26 0.0388 1.5 0.00205 1.5 0.00205 3.03 0.00415 0.885 0.00411 1.77 0.00822 2.68 0.0125 2.55-0.0957 2.55-0.0957 5.27-2.24 0.549-2.12 0.549-2.12 0.625-4.56 0.0632-0.886 0.126-1.77 0.191-2.68 0.0606-0.909 0.121-1.82 0.184-2.75 0.178-1.71 0.365-3.42 0.562-5.12 0.217-1.92 0.217-1.92 0.438-3.88 1.65 0.33 3.3 0.66 5 1v-6h10c0.495 0.99 0.495 0.99 1 2h2v2h2c0.495 0.99 0.495 0.99 1 2l2-1c-0.804-0.804-1.61-1.61-2.44-2.44-3.56-3.56-3.56-3.56-3.62-6.62 0.0206-0.969 0.0412-1.94 0.0625-2.94 3.46-0.495 3.46-0.495 7-1v-2h4v-2c6.62-0.125 6.62-0.125 10 1v-6z" fill="#E8E5DE"></path>
<path transform="translate(893,919)" d="m0 0h11c0.923 3.69 1.1 6.48 1.06 10.2-0.00902 1.08-0.018 2.16-0.0273 3.27-0.0116 0.82-0.0232 1.64-0.0352 2.48h3l1 2c0.825 0.474 1.65 0.949 2.5 1.44 2.5 1.56 2.5 1.56 3.5 4.56h2v2h6v-4h3v-6h6v6h-3v6h2c0.289 0.969 0.577 1.94 0.875 2.94 0.767 3.17 0.767 3.17 3.12 4.06 0.0289 3.79 0.0468 7.58 0.0625 11.4 0.00838 1.08 0.0168 2.16 0.0254 3.27 0.00322 1.03 0.00645 2.06 0.00977 3.12 0.00524 0.953 0.0105 1.91 0.0159 2.89-0.114 2.34-0.114 2.34-1.11 4.34h-3v5h-6v6h-2v2c-1.64 1.04-3.31 2.04-5 3-0.66 0.66-1.32 1.32-2 2-6.55 2.54-12.4 2.21-19 0-2.78 0.00848-5.54 0.13-8.31 0.258-3.17-0.304-4.47-1-6.69-3.26-0.25-3.19-0.25-3.19 0-6-1.06 0.261-1.06 0.261-2.14 0.527-3.06 0.506-5.59 0.369-8.68 0.0352-0.976-0.102-1.95-0.204-2.96-0.309-1.1-0.126-1.1-0.126-2.23-0.254v-3c-1.06 0.0116-2.12 0.0232-3.21 0.0352-1.39 0.00938-2.78 0.0185-4.16 0.0273-0.699 0.00838-1.4 0.0168-2.12 0.0254-5.28 0.0254-5.28 0.0254-7.51-1.09v-6c0.736-0.0606 1.47-0.121 2.23-0.184 0.976-0.0838 1.95-0.168 2.96-0.254 0.963-0.0812 1.93-0.162 2.92-0.246 2.82-0.252 2.82-0.252 5.27-0.857 2.71-0.474 4.86-0.409 7.59-0.119 0.955 0.0939 1.91 0.188 2.89 0.285 1.02 0.103 2.03 0.207 3.08 0.313 8.44 0.767 16.8 1.33 25.3 1.44 0.922 0.0257 1.84 0.0514 2.79 0.0779 5.06 0.0177 5.06 0.0177 9.55-2.13 1.73-2.86 1.85-4.56 1.72-7.89-0.0245-0.95-0.049-1.9-0.0742-2.88-0.152-2.68-0.152-2.68-1.24-5.56-4.3-1.59-8.32-2.23-12.9-2.63-6.79-0.601-13.1-1.28-18.1-6.37-1.5-2.81-1.5-2.81-2-5h-2c-1.01-4.79-1.58-7.68 0.938-12 0.681-0.99 1.36-1.98 2.06-3 0.495 0.99 0.495 0.99 1 2h2c-0.495-2.48-0.495-2.48-1-5 1.65-0.33 3.3-0.66 5-1v-4h4v-4z" fill="#E7E5DE"></path>
<path transform="translate(968,968)" d="m0 0c2 1 2 1 3 3.65 0.33 1.08 0.66 2.17 1 3.29 1.26 4.47 1.26 4.47 4 8.06v-2h2v2h3v-2h15v-2c7.73-1.25 15.4-1.15 23.2-1.12 0.705 8.86e-4 1.41 0.00177 2.14 0.00269 11.6 0.0171 23.1 0.346 34.6 1.12v6h-2v3c-4.22 1.06-8.05 1.02-12.4 0.844-1.04-0.039-1.04-0.039-2.11-0.0787-2.21-0.0827-4.42-0.173-6.63-0.265-2.92-0.121-5.84-0.234-8.76-0.344-1.29-0.0535-2.59-0.107-3.92-0.162-3.22-0.162-3.22-0.162-6.2 1.01v6c-11 5.2-22.1 4.41-34 4v-4c-1.98 0.33-3.96 0.66-6 1v2h-10v-3h-9v-5h-2v-9h-6v-9c2.33-0.0424 4.67-0.0409 7 0l1 1c0.33-0.99 0.66-1.98 1-3h12v-2z" fill="#E7E5DE"></path>
<path transform="translate(254 661)" d="m0 0c1.29-0.0184 1.29-0.0184 2.61-0.0371 15.9-0.0359 28.4 6.62 40 17.3 1.75 1.91 1.75 1.91 1.75 3.91h2c3.85 4.52 5.45 7.94 6.46 13.7 0.571 2.41 1.46 4.23 2.66 6.39 2.08 3.84 2.24 6.55 1.88 10.9-1.94-0.5-1.94-0.5-4-2-0.688-2.7-0.819-5.2-1-8h-2v2c-1.98 0.66-3.96 1.32-6 2-2-2-2-2-2.12-4.62 0.0412-0.784 0.0825-1.57 0.125-2.38h-2v-2h-3v-2h-3v3h-2v-3h-3v8c-2.6-3.9-2.15-7.47-2-12-0.33 0.66-0.66 1.32-1 2h-2v5h-2v-6h-2v2c-3.63-0.33-7.26-0.66-11-1v-8h-8v-4h-4v-6h2v-6c-2.42 0.141-4.83 0.288-7.25 0.438-1.02 0.059-1.02 0.059-2.07 0.119-3.33 0.21-6.49 0.463-9.68 1.44v-3c-2.47 1.49-2.47 1.49-5 3v-6c1.75-0.648 3.5-1.29 5.25-1.94 0.975-0.36 1.95-0.719 2.95-1.09 5.63-1.96 10.6-2.16 16.5-2.16z" fill="#E8E5DE"></path>
<path transform="translate(1494,1567)" d="m0 0h6v2h4v-2h33v2c-12.3 2.64-24.6 2.28-37.1 2.25-2.48 0.00209-4.95 0.00505-7.43 0.00881-5.39 0.00617-10.8 0.00614-16.2 6.33e-4 -8.07-0.00821-16.1-0.00483-24.2 7.65e-4 -13.8 0.00919-27.5 0.0089-41.3 0.00344-13.9-0.0055-27.9-0.00666-41.8-0.00253-0.881 2.58e-4 -1.76 5.17e-4 -2.67 7.83e-4 -3.59 0.00107-7.18 0.00216-10.8 0.0033-33.4 0.0106-66.8 0.0113-100 0.00571-0.99-1.66e-4 -1.98-3.31e-4 -3-5.02e-4 -0.991-1.66e-4 -1.98-3.32e-4 -3-5.03e-4 -30.2-0.00504-60.4-0.00635-90.6-0.00395-2.02 1.55e-4 -4.04 3.09e-4 -6.06 4.63e-4 -8.12 6.21e-4 -16.2 0.00126-24.4 0.00192-22.7 0.00183-45.4 0.00298-68.1 0.00357-1.55 4.09e-5 -1.55 4.09e-5 -3.13 8.27e-5 -32.9 8.19e-4 -65.9-0.00144-98.8-0.00578-1.07-1.4e-4 -2.14-2.81e-4 -3.24-4.26e-4 -17.4-0.00229-34.7-0.00473-52.1-0.00718-68.8-0.00972-138-0.00926-207 4.61e-4 -17.4 0.00244-34.7 0.00486-52.1 0.00714-1.07 1.41e-4 -2.14 2.82e-4 -3.24 4.27e-4 -32.9 0.00431-65.8 0.00614-98.7 0.00527-1.55-4.08e-5 -1.55-4.08e-5 -3.13-8.23e-5 -22.7-6.25e-4 -45.3-0.00189-68-0.00374-8.11-6.58e-4 -16.2-0.00128-24.3-0.0019-2.02-1.55e-4 -4.04-3.12e-4 -6.05-4.72e-4 -30.2-0.00239-60.4-3.49e-4 -90.6 0.0047-0.991 1.66e-4 -1.98 3.31e-4 -3 5.02e-4 -0.989 1.65e-4 -1.98 3.31e-4 -3 5.01e-4 -33.3 0.00551-66.6 0.0035-99.9-0.00706-3.57-0.0011-7.14-0.00218-10.7-0.00323-0.876-2.6e-4 -1.75-5.21e-4 -2.66-7.89e-4 -13.9-0.00395-27.8-0.00119-41.7 0.00433-13.7 0.00527-27.3 0.00347-41-0.00603-8.02-0.00536-16-0.00518-24.1 0.00296-5.93 0.00542-11.9 5.64e-4 -17.8-0.00851-2.4-0.00203-4.8-6.34e-4 -7.2 0.00441-3.23 0.00632-6.47 5.62e-4 -9.7-0.00848-1.42 0.00717-1.42 0.00717-2.86 0.0145-0.853-0.00492-1.71-0.00983-2.59-0.0149-0.738-5.59e-5 -1.48-1.12e-4 -2.24-1.69e-4 -1.81-0.25-1.81-0.25-3.81-2.25h1416v-2z" fill="#E8E5DE"></path>
<path transform="translate(1387,947)" d="m0 0c1.96-0.0269 3.92-0.0464 5.88-0.0625 1.64-0.0174 1.64-0.0174 3.3-0.0352 2.82 0.0977 2.82 0.0977 4.82 1.1v5c0.99 0.33 1.98 0.66 3 1 2.47 18.5 2.47 18.5-1 26h-2v4c-0.99 0.99-1.98 1.98-3 3-0.99 2.64-1.98 5.28-3 8-6.27-0.33-12.5-0.66-19-1-0.495-3.47-0.495-3.47-1-7h-3c-0.289 0.598-0.578 1.2-0.875 1.81-1.12 2.19-1.12 2.19-3.12 5.19v-3h-7c-0.33-0.99-0.66-1.98-1-3-0.736 0.0116-1.47 0.0232-2.23 0.0352-0.976 0.00902-1.95 0.018-2.96 0.0273-1.44 0.0174-1.44 0.0174-2.92 0.0352-3.54-0.119-6.62-0.361-9.72-2.15-3.24-1.41-6.46-1.16-9.92-1.07-1.05 0.0135-1.05 0.0135-2.11 0.0273-1.71 0.0235-3.42 0.0593-5.14 0.0977v3c-2.23 0.0271-4.46 0.0465-6.69 0.0625-1.24 0.0116-2.48 0.0232-3.76 0.0352-3.03-0.0834-5.61-0.461-8.55-1.1-1.44-0.0627-2.88-0.0869-4.31-0.0625-1.22 0.0206-2.43 0.0412-3.69 0.0625v-2c-1.11 0.0412-2.23 0.0825-3.38 0.125-3.62-0.125-3.62-0.125-5.62-2.12l4-1h-4c-0.33-1.32-0.66-2.64-1-4 1.7 0.00786 1.7 0.00786 3.42 0.0159 4.2 0.0181 8.39 0.0296 12.6 0.0391 1.82 0.00503 3.63 0.0118 5.45 0.0205 2.61 0.0121 5.22 0.0178 7.83 0.0222 0.811 0.00516 1.62 0.0103 2.46 0.0156 4.14 0.0434 4.14 0.0434 8.2-0.624 2.33-0.557 4.28-0.539 6.67-0.435 0.911 0.0369 1.82 0.0738 2.76 0.112 0.976 0.0458 1.95 0.0915 2.96 0.139 1.01 0.0434 2.02 0.0869 3.06 0.132 2.13 0.0931 4.26 0.189 6.39 0.288 3.26 0.15 6.53 0.29 9.79 0.428 2.07 0.0918 4.14 0.184 6.21 0.277 1.47 0.0626 1.47 0.0626 2.96 0.126 0.908 0.0432 1.82 0.0864 2.75 0.131 0.798 0.0363 1.6 0.0727 2.42 0.11 2.08 0.203 2.08 0.203 5.08 1.2 0.688 2.06 0.688 2.06 1 4 5.83-5.51 9.36-9.75 9.73-17.9 0.306-2.4 1.09-4.05 2.27-6.15-0.959-0.866-0.959-0.866-1.94-1.75-2.04-2.23-2.64-3.32-3.06-6.25 0.66-0.33 1.32-0.66 2-1v-3l-2-1z" fill="#E8E6DF"></path>
<path transform="translate(1518,1596)" d="m0 0h4c2.34 0.312 4.67 0.642 7 1-6.25 3.12-6.25 3.12-10.4 3.1-1.28-0.00483-1.28-0.00483-2.58-0.00977-0.889-0.00838-1.78-0.0168-2.7-0.0254-0.897-0.00451-1.79-0.00902-2.72-0.0137-2.22-0.0118-4.44-0.0283-6.66-0.0488v-2c-1.81 0.0013-1.81 0.0013-3.65 0.00263-41.2 0.0297-82.5 0.0594-124 0.0892-1.25 8.98e-4 -1.25 8.98e-4 -2.52 0.00181-89 0.0641-178 0.128-267 0.192-1.98 0.00142-3.95 0.00285-5.93 0.00427-41.5 0.0299-83 0.0598-124 0.0897-20.8 0.015-41.7 0.03-62.5 0.045-3.14 0.00226-6.29 0.00453-9.43 0.00679-48.4 0.0349-96.8 0.0698-145 0.105-1.56 0.00113-1.56 0.00113-3.16 0.00227-16.8 0.0121-33.6 0.0242-50.4 0.0363-48.3 0.0348-96.7 0.0697-145 0.105-1.49 0.00107-1.49 0.00107-3.01 0.00217-21.8 0.0157-43.6 0.0314-65.4 0.0471-8.77 0.00632-17.5 0.0126-26.3 0.019-1.44 0.00104-1.44 0.00104-2.91 0.0021-31 0.0223-61.9 0.0446-92.9 0.067-31.2 0.0225-62.4 0.045-93.6 0.0674-4.3 0.0031-8.61 0.0062-12.9 0.0093-0.844 6.08e-4 -1.69 0.00122-2.56 0.00184-13.4 0.00965-26.8 0.0193-40.2 0.029-13.1 0.00948-26.3 0.019-39.4 0.0284-7.72 0.00556-15.4 0.0111-23.2 0.0167-5.71 0.00412-11.4 0.00824-17.1 0.0123-2.31 0.00166-4.62 0.00333-6.93 5e-3 -3.12 0.00225-6.23 0.00449-9.35 0.00673-0.908 6.59e-4 -1.82 0.00132-2.75 2e-3 -0.824 5.89e-4 -1.65 0.00118-2.5 0.00178-0.711 5.12e-4 -1.42 0.00102-2.15 0.00155-3.99 0.0023-7.96-0.0875-11.9-0.218-0.684-0.0222-1.37-0.0444-2.07-0.0673-2.18-0.0709-4.36-0.142-6.54-0.214-1.48-0.0482-2.96-0.0964-4.44-0.145-3.62-0.118-7.25-0.237-10.9-0.355v-1c43.3-0.0306 86.5-0.0612 130-0.0918 0.847-5.99e-4 1.69-0.0012 2.57-0.00181 90.7-0.0642 181-0.128 272-0.192 2.02-0.00142 4.03-0.00285 6.05-0.00427 42.3-0.0299 84.6-0.0598 127-0.0897 21.2-0.015 42.5-0.03 63.7-0.045 3.21-0.00226 6.41-0.00453 9.62-0.00679 49.4-0.0349 98.7-0.0697 148-0.105 1.06-7.51e-4 2.12-0.0015 3.21-0.00227 17.1-0.0121 34.2-0.0242 51.3-0.0363 49.3-0.0349 98.5-0.0697 148-0.105 1.52-0.00107 1.52-0.00107 3.07-0.00217 22.2-0.0157 44.5-0.0314 66.7-0.0471 8.95-0.00632 17.9-0.0126 26.9-0.019 1.47-0.00104 1.47-0.00104 2.97-0.0021 31.6-0.0223 63.1-0.0446 94.7-0.067 31.8-0.0225 63.6-0.045 95.4-0.0674 4.4-0.0031 8.79-0.0062 13.2-0.0093 1.29-9.12e-4 1.29-9.12e-4 2.61-0.00184 13.6-0.00962 27.3-0.0193 40.9-0.029 13.4-0.00952 26.8-0.019 40.2-0.0284 7.86-0.00552 15.7-0.0111 23.6-0.0167 5.84-0.00417 11.7-0.00827 17.5-0.0123 2.34-0.00164 4.69-0.00331 7.03-5e-3 13.3-0.00962 26.7-0.0151 40-0.0131z" fill="#E7E5DC"></path>
<path transform="translate(906 884)" d="m0 0c1.41-0.00263 1.41-0.00263 2.85-0.00531 3.12-0.00441 6.25-0.00148 9.37 0.00189 2.16-6.73e-4 4.33-0.00164 6.49-0.0029 4.54-0.00148 9.08 6.76e-4 13.6 0.00534 5.83 0.00569 11.7 0.00242 17.5-0.00357 4.47-0.00361 8.94-0.00246 13.4 1.28e-4 2.15 6.68e-4 4.3-1.56e-4 6.45-0.00248 3-0.00253 6 0.00132 9.01 0.0069 1.34-0.00304 1.34-0.00304 2.71-0.00613 0.817 0.00282 1.63 0.00564 2.48 0.00854 1.06 5.66e-4 1.06 5.66e-4 2.15 0.00114 1.88 0.126 1.88 0.126 4.88 1.13 2.08 4.05 3.05 8.55 3.44 13.1 0.49 3.43 0.858 4.76 2.46 7.6 2.29 4.42 3.37 8.79 4.36 13.6 0.173 0.797 0.345 1.59 0.523 2.42 0.674 3.18 1.23 6.01 1.23 9.27h-2c-0.33 0.99-0.66 1.98-1 3-0.33-0.99-0.66-1.98-1-3h-3c-0.33 0.99-0.66 1.98-1 3v-5c-1.65 0.66-3.3 1.32-5 2v-2c-1.31 0.282-2.63 0.576-3.94 0.875-1.1 0.244-1.1 0.244-2.21 0.492-2.05 0.462-2.05 0.462-2.85 2.63v-4h-4v-4h2c0.33-0.99 0.66-1.98 1-3 0.66 0.33 1.32 0.66 2 1v2h2v-2h3v2h2v-2h4v-2h-4v-3h4v-2c-1.65 0.33-3.3 0.66-5 1 0.33-1.98 0.66-3.96 1-6h-2c0.0412-1.24 0.0825-2.48 0.125-3.75 0.0116-3.27-0.268-5.46-2.12-8.25h-2v-4h-2c-0.495-0.99-0.495-0.99-1-2-4.78-0.473-4.78-0.473-8.91 1.5-2.64 1.89-4.14 1.81-7.34 1.69-0.892-0.0271-1.78-0.0541-2.7-0.082-0.675-0.0348-1.35-0.0696-2.05-0.105v-2c-0.998 0.00999-0.998 0.00999-2.02 0.0202-6.93 0.0664-13.9 0.112-20.8 0.145-2.58 0.0151-5.17 0.0356-7.75 0.0615-3.72 0.0364-7.43 0.0534-11.1 0.0667-1.16 0.0155-2.31 0.031-3.5 0.0469-1.62 3.4e-4 -1.62 3.4e-4 -3.27 6.87e-4 -1.42 0.00999-1.42 0.00999-2.87 0.0202-3.14-0.428-5.06-1.58-7.65-3.36-0.33 0.66-0.66 1.32-1 2-1.32-0.66-2.64-1.32-4-2v6c-4.46 0.495-4.46 0.495-9 1 0.837-9.48 0.837-9.48 3-13 3.42-1.71 7.33-1.14 11.1-1.13z" fill="#E8E7DF"></path>
<path transform="translate(139,820)" d="m0 0h6v5c4.95 0.33 9.9 0.66 15 1v-3c1.6-0.196 3.21-0.381 4.81-0.562 0.893-0.104 1.79-0.209 2.71-0.316 2.48-0.121 2.48-0.121 5.48 0.879v2c5.94-0.495 5.94-0.495 12-1v2h-2c0.495 1.49 0.495 1.49 1 3-1.32-0.33-2.64-0.66-4-1v-2c-2.92 1.07-4.78 1.78-7 4h2v3h2v3h-3v4c0.99 0.33 1.98 0.66 3 1h-3v4h4v4h2v-3h2v3h3c0.495-1.49 0.495-1.49 1-3 0.495 1.98 0.495 1.98 1 4h6c-0.0412 0.887-0.0825 1.77-0.125 2.69 0.124 3.29 0.739 5.37 2.12 8.31l-2 1-1-4h-3v-2h-5v-2h-7v-3h-2v3h-3l-1-4h2c-0.495-1.49-0.495-1.49-1-3-0.99-0.33-1.98-0.66-3-1v-2h-2v-2h-2v-4h-2v4h-3c-0.495-1.98-0.495-1.98-1-4-0.33 1.32-0.66 2.64-1 4h-4v3h3v6h-3c0.495 1.55 0.495 1.55 1 3.12 0.954 3.38 1.41 6.34 1 9.88-0.99 0.66-1.98 1.32-3 2 0.495 2.48 0.495 2.48 1 5-2.97 0.495-2.97 0.495-6 1-1.32-2.97-2.64-5.94-4-9h-5c-0.495-2.48-0.495-2.48-1-5h-18c3.79 0 7.27 0.425 11 1v2c-2.33 0.381-4.66 0.713-7 1-0.33-0.33-0.66-0.66-1-1-1.98 0.66-3.96 1.32-6 2-0.495 2.48-0.495 2.48-1 5h-1c-0.33-2.64-0.66-5.28-1-8h4c1.21-2.33 2.17-4.5 3-7 0.99-0.495 0.99-0.495 2-1-0.66-0.33-1.32-0.66-2-1v-3c0.66-0.33 1.32-0.66 2-1 0.33-0.99 0.66-1.98 1-3 1.11 0.0206 2.23 0.0412 3.38 0.0625 3.46 0.201 3.46 0.201 5.62-1.06 2-0.04 4-0.0435 6 0v-2h8c0.33-1.32 0.66-2.64 1-4h4v-6c-0.784 0.186-1.57 0.371-2.38 0.562-2.62 0.438-2.62 0.438-4.62-0.562-0.633-2.07-0.633-2.07-1.12-4.56-0.168-0.826-0.335-1.65-0.508-2.5-0.121-0.638-0.242-1.28-0.367-1.93-0.99 0.33-1.98 0.66-3 1v3c0.66 0.33 1.32 0.66 2 1h-3v-7z" fill="#E8E5DF"></path>
<path transform="translate(1180,665)" d="m0 0h10c0.33 1.32 0.66 2.64 1 4-2.97-0.495-2.97-0.495-6-1v2h3v2h2.25c6.75 0 6.75 0 8.75 1v-4c10.8-1.98 20 0.968 30 5v2c0.619 0.0619 1.24 0.124 1.88 0.188 2.12 0.812 2.12 0.812 3.38 3.19 0.75 2.62 0.75 2.62 0.75 5.62-7.75 0.125-7.75 0.125-10-1-2.55-0.0717-5.07-0.0931-7.62-0.0625-1.06 0.00677-1.06 0.00677-2.14 0.0137-1.74 0.0118-3.49 0.0297-5.23 0.0488 0.495 3.47 0.495 3.47 1 7h2v3c1.98 0.66 3.96 1.32 6 2v6h-4v2c-3.63-0.33-7.26-0.66-11-1-0.33-2.97-0.66-5.94-1-9h-4v-3h-4c0.0206-0.969 0.0412-1.94 0.0625-2.94 0.294-2.94 0.294-2.94-1.06-4.06v3c-2.47 1.24-3.71 0.956-6.44 0.625-0.782-0.0902-1.56-0.18-2.37-0.273-2.19-0.352-2.19-0.352-5.19-1.35-0.33-0.99-0.66-1.98-1-3-0.99-0.33-1.98-0.66-3-1v-4h-4c-0.329-3.62-0.446-5.4 1.75-8.38 2.25-1.62 2.25-1.62 6.25-1.62v-3z" fill="#E7E5DE"></path>
<path transform="translate(661,981)" d="m0 0c1 1 1 1 1.06 3.56-0.0206 0.804-0.0412 1.61-0.0625 2.44-8.43 1.29-8.43 1.29-13 0v3c-1.65 0.33-3.3 0.66-5 1v5c-1.98 0.33-3.96 0.66-6 1v2h-3c-0.33 1.32-0.66 2.64-1 4h-2v2c-1.77-0.114-3.54-0.242-5.31-0.375-0.986-0.0696-1.97-0.139-2.99-0.211-2.7-0.414-2.7-0.414-5.7-2.41v-3c-0.99-0.33-1.98-0.66-3-1v-2c-1.98 0.33-3.96 0.66-6 1v6h-6v-3h-9v-3h2v2h3l-1-2c-10.9-0.495-10.9-0.495-22-1v-2c-2.48-0.495-2.48-0.495-5-1 0.33-0.66 0.66-1.32 1-2h4v-2c-7.26-0.66-14.5-1.32-22-2-0.33 0.99-0.66 1.98-1 3v-6c2.46-0.0275 4.92-0.0471 7.38-0.0625 1.02-0.0126 1.02-0.0126 2.06-0.0254 3.77-0.0176 7.44 0.151 11.2 0.583 5.35 0.551 10.6 0.666 16 0.672 0.986 0.00333 1.97 0.00666 2.99 0.0101 2.08 0.00503 4.15 0.00741 6.23 0.00725 3.12 0.00217 6.24 0.0203 9.35 0.0393 15.1 0.0424 29.7-0.94 44.6-3.85 2.77-0.475 5.41-0.6 8.21-0.379z" fill="#E8E6DF"></path>
<path transform="translate(245,863)" d="m0 0c1.65 0.66 3.3 1.32 5 2v2c0.74 0.278 1.48 0.557 2.24 0.844 8.74 3.67 16.2 10.4 22.8 17.2v2c0.99 0.33 1.98 0.66 3 1 1.94 4.38 2 7.02 2 12h-20c-0.66 3.3-1.32 6.6-2 10h-6c-0.33-0.99-0.66-1.98-1-3-1.49-0.495-1.49-0.495-3-1v-5h-2v-2h-2c-0.33 0.99-0.66 1.98-1 3-0.66-0.33-1.32-0.66-2-1v-2h-2c0.33-1.65 0.66-3.3 1-5h-3c-0.33-2.31-0.66-4.62-1-7h-3c-0.33-1.32-0.66-2.64-1-4-2.64-0.33-5.28-0.66-8-1 0.0625-2.31 0.0625-2.31 1-5 3.56-1.81 3.56-1.81 7-3 1.56 1.19 1.56 1.19 3 3-0.312 2.69-0.312 2.69-1 5h3v3h5c0.33 0.99 0.66 1.98 1 3 0.33-2.64 0.66-5.28 1-8 2 1 2 1 2.63 2.85 0.162 0.731 0.325 1.46 0.492 2.21 0.168 0.733 0.335 1.47 0.508 2.22 0.121 0.566 0.242 1.13 0.367 1.71 0.66-0.33 1.32-0.66 2-1 2-0.04 4-0.0435 6 0-0.33-0.33-0.66-0.66-1-1h-3v-2h-2c-0.336-1.46-0.669-2.92-1-4.38-0.186-0.812-0.371-1.62-0.562-2.46-0.438-2.16-0.438-2.16-0.438-4.16h-3v-3c-1.32-0.33-2.64-0.66-4-1h4v-2c-1.32-0.33-2.64-0.66-4-1v-2h4v-2z" fill="#E8E6DF"></path>
<path transform="translate(1391,675)" d="m0 0v2c0.722 0.227 1.44 0.454 2.19 0.688 3.38 1.58 5.37 3.52 7.81 6.31v2h2c1.97 4.93 2.18 8.78 2 14-0.99 0.33-1.98 0.66-3 1v-4h-2v3c-3.62 1.32-6.1 2-10 2v13h-3c-0.33 0.99-0.66 1.98-1 3h-7v-9h-2c-0.33-1.98-0.66-3.96-1-6-0.763-0.124-1.53-0.247-2.31-0.375-2.69-0.625-2.69-0.625-5.69-2.62-0.408-2.71-0.133-5.24 0-8h-2v-6c0.99 0.33 1.98 0.66 3 1 0.33-0.66 0.66-1.32 1-2 2.33-0.0424 4.67-0.0409 7 0 0.33 0.33 0.66 0.66 1 1 0.33-0.66 0.66-1.32 1-2-1.3 0.0206-2.6 0.0412-3.94 0.0625-1.35 0.0215-2.71 0.00898-4.06-0.0625-1-1-1-1-1.1-3.07 0.0174-1.24 0.0174-1.24 0.0352-2.5 0.00902-0.826 0.018-1.65 0.0273-2.5 0.0116-0.638 0.0232-1.28 0.0352-1.93h3c0.33 0.66 0.66 1.32 1 2h-2v3h3v-6c6.22-2.07 10.3-0.72 16 2z" fill="#E8E5DE"></path>
<path transform="translate(973,833)" d="m0 0h1v9h-2c0.495 1.49 0.495 1.49 1 3 2.97-0.66 5.94-1.32 9-2 2.06 5.74 3.56 10.9 4 17-1 1-1 1-3.51 1.12-1.12-0.00222-2.23-0.00444-3.38-0.00673-1.26-7.55e-5 -2.52-1.51e-4 -3.82-2.29e-4 -1.39-0.00511-2.77-0.0103-4.16-0.0156-1.41-0.00186-2.82-0.00329-4.23-0.00429-3.72-0.00382-7.44-0.0137-11.2-0.0247-3.79-0.0102-7.59-0.0148-11.4-0.0198-7.45-0.0107-14.9-0.0278-22.3-0.0488 0.66-0.66 1.32-1.32 2-2-1.98-0.33-3.96-0.66-6-1 0.99-1.98 1.98-3.96 3-6-0.99 0.33-1.98 0.66-3 1-0.66-0.66-1.32-1.32-2-2 0.99-1.49 0.99-1.49 2-3 0.699 0.0838 1.4 0.168 2.12 0.254 1.37 0.153 1.37 0.153 2.76 0.309 0.905 0.104 1.81 0.209 2.74 0.316 2.4 0.318 2.4 0.318 4.38-0.879 0.33-1.65 0.66-3.3 1-5 7.92 0.33 15.8 0.66 24 1 0.495 1.49 0.495 1.49 1 3 0.99-0.33 1.98-0.66 3-1 0.33-0.99 0.66-1.98 1-3v11h2c0.33-0.66 0.66-1.32 1-2 0.33 0.33 0.66 0.66 1 1 0.049-0.904 0.098-1.81 0.148-2.74 0.0748-1.18 0.15-2.36 0.227-3.57 0.0696-1.17 0.139-2.34 0.211-3.55 0.414-3.14 0.414-3.14 2.41-6.14h2c0.33-0.66 0.66-1.32 1-2 0.495 1.49 0.495 1.49 1 3v-3h2v-2z" fill="#E7E5DE"></path>
<path transform="translate(600 661)" d="m0 0c1.29-0.0184 1.29-0.0184 2.6-0.0371 1.25-0.0029 1.25-0.0029 2.52-0.00586 0.756-0.00411 1.51-0.00822 2.29-0.0125 2.42 0.274 4.05 1.04 6.15 2.24v6h7v8c2.64 0.33 5.28 0.66 8 1v6h2v-6h3v8h3v6h2v-6h3c0.196 2.4 0.382 4.79 0.562 7.19 0.0841 1.01 0.0841 1.01 0.17 2.04 0.277 3.79 0.233 7.09-0.732 10.8l-1-4c-0.722 0.186-1.44 0.371-2.19 0.562-2.94 0.457-4.95 0.173-7.81-0.562 0.33-2.64 0.66-5.28 1-8-1.98 0.267-1.98 0.267-4 1-0.33 0.99-0.66 1.98-1 3v-4h-7c-0.66-2.64-1.32-5.28-2-8h-6v-2h-4v-8h2c0.66-1.98 1.32-3.96 2-6-0.61 0.0157-1.22 0.0314-1.85 0.0476-2.78 0.0626-5.56 0.101-8.34 0.14-1.44 0.0377-1.44 0.0377-2.91 0.0762-9.12 0.0947-9.12 0.0947-12.9-3.26-0.33-0.99-0.66-1.98-1-3h3v-2c4.16-1.39 8.08-1.18 12.4-1.19z" fill="#E8E5DF"></path>
<path transform="translate(404,857)" d="m0 0c1.32 0.33 2.64 0.66 4 1h-2c0.33 0.66 0.66 1.32 1 2 0.66-0.33 1.32-0.66 2-1v-2h2c0.66 0.99 1.32 1.98 2 3 0.99-0.33 1.98-0.66 3-1 0.11 0.603 0.219 1.21 0.332 1.83 0.865 4.89 0.865 4.89 3.17 9.17 2.42 3.23 2.79 7.08 3.5 11h2c-0.0412 0.887-0.0825 1.77-0.125 2.69 0.127 3.36 0.497 5.38 2.12 8.31 2.51 1.67 5.06 2.37 8 3 0.33 1.65 0.66 3.3 1 5h2c1.67 3.33 3.33 6.67 5 10h-2v3c-0.99-0.33-1.98-0.66-3-1v-2h-2v3c-3.01 0.934-3.87 1.04-7 0v-2h-5c-0.33-2.97-0.66-5.94-1-9h-11v-12h5c-0.99-4.62-1.98-9.24-3-14h-2v3h2v5h-3c-0.33-2.97-0.66-5.94-1-9h-2v-2h-2v-6h-2v-10z" fill="#E7E5DE"></path>
<path transform="translate(957,778)" d="m0 0c2.29 6.87 2.29 6.87 1.38 10.4-0.539 3.69 1.04 5.99 2.64 9.27 0.94 2.19 1.36 3.94 1.61 6.29 0.124 0.99 0.247 1.98 0.375 3 0.66 0.33 1.32 0.66 2 1-0.875 3.88-0.875 3.88-2 5h3c2.27 4.96 3.79 9.68 5 15-1.98 0.495-1.98 0.495-4 1v-5c-0.103 0.639-0.206 1.28-0.312 1.94-0.227 0.681-0.454 1.36-0.688 2.06-0.99 0.33-1.98 0.66-3 1-1.81-4.62-2.22-8.43-2.12-13.4 0.018-1.25 0.0361-2.49 0.0547-3.77 0.0232-0.941 0.0464-1.88 0.0703-2.85-0.583 0.174-1.17 0.348-1.77 0.527-3.21 0.679-6.03 0.0267-9.23-0.527 0.99-0.66 1.98-1.32 3-2l-4-4c-0.66 0.99-1.32 1.98-2 3-3.46-2.67-4.06-5.86-5-10v-4c-2.64-0.33-5.28-0.66-8-1v3h5v2h-5v3h5c0.688 2.81 0.688 2.81 1 6-1.44 1.88-1.44 1.88-3 3-3-2-3-2-4-4-0.33 0.99-0.66 1.98-1 3h-3v-5h2c0.0142-0.75 0.0284-1.5 0.043-2.27 0.364-7.81 2.07-12.9 5.96-19.7 3.63 0.33 7.26 0.66 11 1 0.66-0.99 1.32-1.98 2-3 2.98-1.15 3.87-1.04 7 0z" fill="#E8E6DF"></path>
<path transform="translate(1019 978)" d="m0 0c0.705 8.86e-4 1.41 0.00177 2.14 0.00269 11.6 0.0171 23.1 0.346 34.6 1.12v6h-2v3c-4.62 1.2-8.97 1.02-13.7 0.844-0.829-0.026-1.66-0.052-2.51-0.0787-2.64-0.0829-5.28-0.173-7.92-0.265-3.48-0.121-6.96-0.234-10.4-0.344-1.2-0.0453-1.2-0.0453-2.42-0.0914-3.3-0.103-5.85-0.118-9.01 0.935-1.73 0.068-3.46 0.085-5.19 0.0625-0.901-0.00902-1.8-0.018-2.73-0.0273-0.687-0.0116-1.37-0.0232-2.08-0.0352v2c-6.75 1.12-6.75 1.12-9 0v-2c-2.65-1.08-5.28-2.09-8-3v-5h15v-2c7.73-1.25 15.4-1.15 23.2-1.12z" fill="#E8E7DF"></path>
<path transform="translate(1121 977)" d="m0 0c0.862 0.0411 1.72 0.0821 2.61 0.124 1.83 0.0888 3.66 0.181 5.48 0.275 2.77 0.142 5.54 0.269 8.31 0.395 1.78 0.0883 3.56 0.177 5.34 0.268 1.23 0.0548 1.23 0.0548 2.48 0.111 5.51 0.301 10.7 1.2 16 2.56v5h-2v2h-13v3h-6c0.33-1.32 0.66-2.64 1-4-5.63-0.098-11.1-0.0435-16.8 0.562-4.35 0.448-7.96 0.241-12.2-0.562h-3v-2h-10v3h-2v-3h-18c0.66-0.33 1.32-0.66 2-1-0.33-0.66-0.66-1.32-1-2-0.33-0.99-0.66-1.98-1-3 2.8-1.4 5.09-1.09 8.21-1.06 1.86 0.0116 1.86 0.0116 3.77 0.0234 2.63 0.026 5.27 0.052 7.9 0.0781 1.87 0.0116 1.87 0.0116 3.77 0.0234 1.72 0.0174 1.72 0.0174 3.47 0.0352 4.97-0.169 9.49-1.09 14.6-0.828z" fill="#E8E7DF"></path>
<path transform="translate(279,667)" d="m0 0c7.59 1.75 13.8 7.33 19 13v2h2c3.85 4.52 5.45 7.94 6.46 13.7 0.571 2.41 1.46 4.23 2.66 6.39 2.08 3.84 2.24 6.55 1.88 10.9-1.94-0.5-1.94-0.5-4-2-0.688-2.7-0.819-5.2-1-8h-2v2c-1.98 0.66-3.96 1.32-6 2-2-2-2-2-2.12-4.62 0.0412-0.784 0.0825-1.57 0.125-2.38h-2v-2h-3v-2h-3v3h-2v-3h-3v8c-2.09-3.4-2.26-6.04-2-10l1-2c0.206-4.11 0.339-7.06-1.06-10.9-1.29-4.2-0.641-7.78 0.0625-12.1h-2v-2z" fill="#E8E7DF"></path>
<path transform="translate(642,670)" d="m0 0c5.11 1.6 8.87 4.71 13 8 0.973 0.75 0.973 0.75 1.96 1.52 3.84 3.08 6.35 5.72 8.04 10.5 0.188 3.38 0.188 3.38 0 6h2c1.76 4.97 3.33 9.74 4 15h2v6h-3c-0.33-0.99-0.66-1.98-1-3-0.66 0.99-1.32 1.98-2 3v-5h-3v-2h-2v2h-3v-5h-2v-7h-5c-0.33-1.65-0.66-3.3-1-5h-3v-3h-4c-0.33-2.31-0.66-4.62-1-7-2.31-0.33-4.62-0.66-7-1 1.32-0.33 2.64-0.66 4-1 0.0606-0.771 0.121-1.54 0.184-2.34 0.0838-1 0.168-2.01 0.254-3.04 0.0812-0.998 0.162-2 0.246-3.02 0.316-2.6 0.316-2.6 1.32-4.6z" fill="#E8E7DF"></path>
<path transform="translate(1054,1007)" d="m0 0h19v4h2v-4h21v4h3v-4h8v4h3c0.188 2.88 0.188 2.88 0 6-3.96 2.64-7.36 2.27-11.9 2.23-0.884-4.58e-4 -1.77-9.16e-4 -2.68-0.00139-1.87-0.00302-3.75-0.0109-5.62-0.0233-2.84-0.0181-5.69-0.0205-8.53-0.0203-1.83-0.00492-3.65-0.0108-5.48-0.0176-0.841-0.00111-1.68-0.00223-2.55-0.00337-5.47-0.043-10.8-0.482-16.2-1.16-0.33-1.65-0.66-3.3-1-5h-2v-6z" fill="#E8E5DF"></path>
<path transform="translate(1263,1007)" d="m0 0h23v5h2v-5h11v4h27v6c-1.85 1.85-4.89 1.35-7.38 1.5-3.48 0.216-6.32 0.398-9.62 1.5-2.66-0.0627-5.28-0.185-7.94-0.375-0.716-0.0438-1.43-0.0877-2.17-0.133-3.41-0.228-6.59-0.647-9.89-1.49-0.33 0.33-0.66 0.66-1 1-2.31-0.0644-4.63-0.202-6.94-0.375-1.9-0.135-1.9-0.135-3.84-0.273-3.22-0.352-3.22-0.352-5.22-1.35v-4h-9v-6z" fill="#E8E5DF"></path>
<path transform="translate(871 977)" d="m0 0c1.37 0.0984 1.37 0.0984 2.77 0.199 1.94 0.14 3.87 0.283 5.81 0.429 2.95 0.221 5.89 0.434 8.84 0.646 1.88 0.138 3.76 0.276 5.65 0.414 1.31 0.0954 1.31 0.0954 2.66 0.193 4.75 0.36 9.44 0.861 14.1 1.6v3h-2v3c-8.14 3.13-15.7 3.4-24.3 3.25-1.25-0.00516-2.5-0.0103-3.78-0.0156-9.93-0.0852-9.93-0.0852-14.9-1.23v-3c-1.06 0.0116-2.12 0.0232-3.21 0.0352-1.39 0.00938-2.78 0.0185-4.16 0.0273-0.699 0.00838-1.4 0.0168-2.12 0.0254-5.28 0.0254-5.28 0.0254-7.51-1.09v-6c0.771-0.0606 1.54-0.121 2.34-0.184 1.5-0.126 1.5-0.126 3.04-0.254 0.998-0.0812 2-0.162 3.02-0.246 9.3-1.13 9.3-1.13 13.7-0.793z" fill="#E8E7DF"></path>
<path transform="translate(578,666)" d="m0 0v9c-1.98 0.99-1.98 0.99-4 2v6c-3.63 0.33-7.26 0.66-11 1-0.66 1.98-1.32 3.96-2 6-5.75 0.125-5.75 0.125-8-1v3c-3.21 1.61-6.44 1.06-10 1-0.707-2.23-0.707-2.23-1-5 1.36-2.24 1.36-2.24 3.31-4.31 0.636-0.697 1.27-1.39 1.93-2.11 1.76-1.57 1.76-1.57 3.76-1.57 0.33-0.99 0.66-1.98 1-3 2.56-1.19 2.56-1.19 5-2v-2c2.27-1.15 4.54-2.29 6.81-3.44 0.643-0.325 1.29-0.651 1.95-0.986 7.49-3.76 7.49-3.76 12.2-2.58z" fill="#E7E5DE"></path>
<path transform="translate(106,966)" d="m0 0h6v2h2v2h8c0.33 2.31 0.66 4.62 1 7h7c0.33 1.32 0.66 2.64 1 4 4.95 0.33 9.9 0.66 15 1v8c-18.4 0.359-18.4 0.359-26-3v-5h-9v-4h-3v-6h-2v-6z" fill="#E8E5DF"></path>
<path transform="translate(973,833)" d="m0 0h1v9h-2c0.33 0.99 0.66 1.98 1 3 2.97-0.66 5.94-1.32 9-2 2.06 5.74 3.56 10.9 4 17-1 1-1 1-3.22 1.11-0.958-0.00524-1.92-0.0105-2.9-0.0159-1.55-0.00483-1.55-0.00483-3.13-0.00977-1.09-0.00838-2.18-0.0168-3.3-0.0254-1.64-0.00677-1.64-0.00677-3.31-0.0137-2.71-0.0118-5.42-0.0283-8.13-0.0488v-1c-4.95-0.33-9.9-0.66-15-1v-1c5.94-0.33 11.9-0.66 18-1-1.65-0.33-3.3-0.66-5-1v-2h2c0.33-0.66 0.66-1.32 1-2 0.33 0.33 0.66 0.66 1 1 0.049-0.904 0.098-1.81 0.148-2.74 0.0748-1.18 0.15-2.36 0.227-3.57 0.0696-1.17 0.139-2.34 0.211-3.55 0.414-3.14 0.414-3.14 2.41-6.14h2c0.33-0.66 0.66-1.32 1-2 0.33 0.99 0.66 1.98 1 3v-3h2v-2z" fill="#E8E5DF"></path>
<path transform="translate(384,777)" d="m0 0h9c0.66 2.97 1.32 5.94 2 9h-2v7h-3v10h3v6h-3v5c-1.98 0.495-1.98 0.495-4 1v2h-6c-1.87-6.59-1.14-13.3 0-20 0.99-0.33 1.98-0.66 3-1 0.33-2.31 0.66-4.62 1-7h-2v-6h2v-6z" fill="#E8E5DF"></path>
<path transform="translate(245,624)" d="m0 0v3h2v-3h17v2c1.65-0.33 3.3-0.66 5-1-0.33 0.66-0.66 1.32-1 2-0.555 0.0251-1.11 0.0501-1.68 0.0759-2.52 0.116-5.05 0.239-7.57 0.362-1.31 0.059-1.31 0.059-2.64 0.119-0.844 0.0419-1.69 0.0838-2.56 0.127-0.775 0.0367-1.55 0.0733-2.35 0.111-2.16 0.201-4.12 0.623-6.2 1.21v3h2v-3h17v2c1.65-0.33 3.3-0.66 5-1-0.33 0.99-0.66 1.98-1 3-1.09-0.0116-2.18-0.0232-3.3-0.0352-9.77-0.0885-9.77-0.0885-19.5 0.535-8.7 0.866-17.5 0.578-26.2 0.5v-10c20.9-2.54 20.9-2.54 26 0z" fill="#E8E5DF"></path>
<path transform="translate(1499,814)" d="m0 0v6h-4c-0.33 2.31-0.66 4.62-1 7-2.31 0.33-4.62 0.66-7 1v7c-3.16 0.936-5.97 1.11-9.25 1.06-0.892-0.00902-1.78-0.018-2.7-0.0273-0.675-0.0116-1.35-0.0232-2.05-0.0352v3c-3.83 1.8-6.78 2.2-11 2 0.607-5.46 0.607-5.46 2.38-7.88 1.62-1.12 1.62-1.12 4.62-1.12v-2h2c0.33-0.66 0.66-1.32 1-2l4-2c0.33-0.66 0.66-1.32 1-2 2.31-0.731 4.65-1.4 7-2l-2-1c1.66-1.34 3.33-2.67 5-4 0.598-0.577 1.2-1.15 1.81-1.75 3.38-1.93 6.33-1.44 10.2-1.25z" fill="#E8E5DF"></path>
<path transform="translate(1565,1563)" d="m0 0c0.33 0.66 0.66 1.32 1 2 0.99 0.33 1.98 0.66 3 1-0.33 0.66-0.66 1.32-1 2h-2c0.33 0.66 0.66 1.32 1 2 0.99-0.33 1.98-0.66 3-1v-6c0.33 0.66 0.66 1.32 1 2 0.99 0.33 1.98 0.66 3 1-0.33 0.66-0.66 1.32-1 2h-2v2c0.99 0.33 1.98 0.66 3 1-0.33 0.66-0.66 1.32-1 2h-2v2c-0.99 0.33-1.98 0.66-3 1v-2h2c-0.33-0.66-0.66-1.32-1-2-0.99 0.33-1.98 0.66-3 1v2c-0.99 0.33-1.98 0.66-3 1-0.33-0.33-0.66-0.66-1-1-1.32 0.33-2.64 0.66-4 1v9h-11c0.66-0.33 1.32-0.66 2-1v-2c-0.99-0.33-1.98-0.66-3-1l4-4c-0.743-0.0825-1.48-0.165-2.25-0.25-3.26-0.89-4.56-2.24-6.75-4.75 0.66-0.33 1.32-0.66 2-1-0.66-1.65-1.32-3.3-2-5 5.2-0.868 10.2-1.13 15.4-1.06 1.1 0.00677 1.1 0.00677 2.22 0.0137 1.78 0.0116 3.56 0.0296 5.35 0.0488 0.33-0.66 0.66-1.32 1-2z" fill="#E7E5DD"></path>
<path transform="translate(1398,851)" d="m0 0v4h-2v2h-6v2c-3 0.366-6 0.718-9 1.06-0.839 0.104-1.68 0.208-2.54 0.314-7.2 0.809-13.6 0.543-20.5-1.94-0.763-0.269-1.53-0.539-2.31-0.816-0.557-0.205-1.11-0.41-1.69-0.621v-2h-4v-3c2.43-1.21 3.94-1.1 6.65-1.06 1.38 0.0116 1.38 0.0116 2.8 0.0234 1.95 0.0259 3.89 0.052 5.84 0.0781 0.926 0.00773 1.85 0.0155 2.8 0.0234 0.846 0.0116 1.69 0.0232 2.56 0.0352 21.4-0.89 21.4-0.89 27.4-0.0977z" fill="#E9E8E0"></path>
<path transform="translate(213,986)" d="m0 0h9v1c1.27-0.0174 1.27-0.0174 2.57-0.0352 6.34-0.0488 12.5 0.0679 18.9 0.598 4.79 0.392 8.86 0.274 13.6-0.562 0.99 0.33 1.98 0.66 3 1v5h-6v2c-3.07 1.53-6.27 1.12-9.63 1.1-1.13-0.00212-1.13-0.00212-2.28-0.00429-2.4-0.0056-4.81-0.0182-7.21-0.0309-1.63-0.00501-3.26-0.00958-4.89-0.0137-4-0.011-7.99-0.0283-12-0.0488v-5c-1.98-0.66-3.96-1.32-6-2 0.33-0.99 0.66-1.98 1-3z" fill="#E8E7DF"></path>
<path transform="translate(1381 672)" d="m0 0c4.1 0.304 6.69 1.48 10.4 3.25v2c0.722 0.227 1.44 0.454 2.19 0.688 3.38 1.58 5.37 3.52 7.81 6.31v2h2c1.97 4.93 2.18 8.78 2 14-0.99 0.33-1.98 0.66-3 1v-4h-2c-0.33 0.99-0.66 1.98-1 3v-3c-0.99 0.66-1.98 1.32-3 2-0.66 0.33-1.32 0.66-2 1v-3c-0.99-0.33-1.98-0.66-3-1 0.99-0.66 1.98-1.32 3-2v-2c-0.743-0.0206-1.48-0.0412-2.25-0.0625-3.4-1.16-4.36-2.81-5.97-5.95-1.18-3-1.52-5.78-1.78-8.99-0.33 0.66-0.66 1.32-1 2h-3c-2.13-2.13-2.53-3.1-3-6 1-1 1-1 3.62-1.25z" fill="#E8E7DF"></path>
<path transform="translate(824 978)" d="m0 0c1.03 0.00322 2.06 0.00645 3.12 0.00977 1.62 0.0126 1.62 0.0126 3.27 0.0254 1.63 0.00677 1.63 0.00677 3.3 0.0137 2.69 0.0118 5.39 0.0283 8.08 0.0488v6c-2.53 1.26-4.62 1.29-7.44 1.5-3.13 0.233-5.58 0.505-8.56 1.5-3.43 0.374-6.87 0.512-10.3 0.688-0.938 0.0599-1.88 0.12-2.84 0.182-5.09 0.262-9.07 0.217-13.8-1.87v-5c1.28-0.133 2.55-0.266 3.87-0.402 1.67-0.178 3.34-0.357 5.01-0.535 0.842-0.087 1.68-0.174 2.55-0.264 1.21-0.131 1.21-0.131 2.44-0.264 0.744-0.0786 1.49-0.157 2.25-0.238 8.83-1.4 8.83-1.4 9.11-1.39z" fill="#E8E7DF"></path>
<path transform="translate(1229,674)" d="m0 0v2c0.619 0.0619 1.24 0.124 1.88 0.188 2.12 0.812 2.12 0.812 3.38 3.19 0.75 2.62 0.75 2.62 0.75 5.62-6.05 0.195-6.05 0.195-8 0-0.66-0.66-1.32-1.32-2-2v-3c-1.68-0.0909-1.68-0.0909-3.39-0.184-1.47-0.0844-2.95-0.169-4.42-0.254-1.11-0.059-1.11-0.059-2.24-0.119-3.18-0.187-5.91-0.431-8.95-1.44v-2c-1.65-0.33-3.3-0.66-5-1-0.66-1.98-1.32-3.96-2-6 10.2-3.11 20.6 1.23 30 5z" fill="#E8E7DF"></path>
<path transform="translate(735,950)" d="m0 0v6h-2v4c-0.959 0.433-0.959 0.433-1.94 0.875-2.21 0.953-2.21 0.953-3.06 3.12h-3c-0.33 0.99-0.66 1.98-1 3-3.63 0.33-7.26 0.66-11 1v6c-1.65 0.33-3.3 0.66-5 1v2h-6v-2c-1.98 0.33-3.96 0.66-6 1 0.33-1.32 0.66-2.64 1-4h3v-2c0.568-0.129 1.14-0.258 1.72-0.391 6.73-1.8 11.5-4.53 16.3-9.61h3v-2h2v-2c1.65-0.33 3.3-0.66 5-1v-2c4.38-3 4.38-3 7-3z" fill="#E8E5DF"></path>
<path transform="translate(1335,695)" d="m0 0h1c0.808 3.57 1.15 6.91 1.21 10.6 0.0199 1.1 0.0399 2.2 0.0604 3.33 0.0167 1.19 0.0334 2.38 0.0507 3.61 0.0209 1.25 0.0417 2.5 0.0632 3.79 0.0549 3.39 0.105 6.78 0.153 10.2 0.0298 2.1 0.0612 4.2 0.093 6.3 0.276 18.3 0.475 36.6 0.499 54.9 0.00259 0.926 0.00518 1.85 0.00784 2.81 0.00576 2.58 0.00435 5.16-3.05e-5 7.73 0.00198 0.745 0.00396 1.49 6e-3 2.26-0.0152 3.33-0.101 6.39-1.14 9.58h-2v-115z" fill="#E9E8E0"></path>
<path transform="translate(1167,962)" d="m0 0c1.32 0.33 2.64 0.66 4 1 0.33 1.98 0.66 3.96 1 6 0.66-0.99 1.32-1.98 2-3 0.66 1.32 1.32 2.64 2 4 0.66-0.99 1.32-1.98 2-3 0.99 0.66 1.98 1.32 3 2v3c1.32 0.33 2.64 0.66 4 1v7c-2.92 0.826-5.6 1.19-8.62 1.25-1.16 0.0387-1.16 0.0387-2.35 0.0781-0.668-0.108-1.34-0.217-2.02-0.328-0.66-0.99-1.32-1.98-2-3-0.66 0.99-1.32 1.98-2 3v-2c-1.65 0.66-3.3 1.32-5 2 0.217-0.557 0.433-1.11 0.656-1.69 1.97-5.39 2.54-9.59 2.34-15.3 0.33-0.66 0.66-1.32 1-2z" fill="#E8E7DF"></path>
<path transform="translate(196,858)" d="m0 0c0.66 0.33 1.32 0.66 2 1-0.33 0.66-0.66 1.32-1 2 2.76-0.523 5.33-1.11 8-2v6c1.22 0.124 2.43 0.247 3.69 0.375 3.38 0.437 6.3 0.939 9.31 2.62 1.31 2.12 1.31 2.12 2 4 1.32-0.66 2.64-1.32 4-2v8c-4.05 0.982-7.84 1.08-12 1v-2h-3v-2h-2c0.33-2.97 0.66-5.94 1-9-1.03 0.165-2.06 0.33-3.12 0.5-3.36 0.433-6.5 0.582-9.88 0.5 0.33-2.97 0.66-5.94 1-9z" fill="#E8E5DF"></path>
<path transform="translate(1336,848)" d="m0 0h2c1.01 8.58 1.06 17 0.879 25.6-0.0244 1.37-0.0482 2.75-0.0715 4.12-0.0622 3.58-0.131 7.16-0.202 10.7-0.0713 3.67-0.136 7.33-0.201 11-0.128 7.17-0.264 14.3-0.404 21.5h-3c-0.0232-8.48-0.041-17-0.0518-25.5-0.00521-3.94-0.0123-7.88-0.0236-11.8-0.0109-3.81-0.0169-7.61-0.0194-11.4-0.00184-1.45-0.00543-2.9-0.0109-4.35-0.00731-2.04-0.00826-4.07-0.0078-6.11-0.00222-1.16-0.00444-2.31-0.00673-3.51 0.126-3.51 0.564-6.88 1.12-10.3z" fill="#E9E8E0"></path>
<path transform="translate(25.4 1596)" d="m0 0c1.28-0.00193 2.55-0.00387 3.87-0.00586 1.38 0.00412 2.76 0.00868 4.14 0.0137 0.697 8.86e-4 1.39 0.00177 2.11 0.00269 15.2 0.0225 30.3 0.503 45.5 1.12-0.33 0.66-0.66 1.32-1 2-3.21 1.07-5.54 1.14-8.91 1.16-1.21 0.00961-2.43 0.0192-3.68 0.0291-1.97 0.00637-1.97 0.00637-3.98 0.0129-1.36 0.00575-2.72 0.0115-4.08 0.0173-2.85 0.0105-5.69 0.0163-8.54 0.0198-3.65 0.0055-7.3 0.0296-11 0.058-2.8 0.0186-5.61 0.0238-8.41 0.0254-2 0.00451-4 0.0232-6.01 0.042-1.21-3e-3 -2.42-6e-3 -3.67-0.00909-1.61 0.00547-1.61 0.00547-3.24 0.011-0.837-0.121-1.67-0.243-2.54-0.367-0.66-0.99-1.32-1.98-2-3 3.87-0.907 7.46-1.13 11.4-1.13z" fill="#E7E5DC"></path>
<path transform="translate(250 661)" d="m0 0c1.08 0.00902 2.16 0.018 3.27 0.0273 0.82 0.0116 1.64 0.0232 2.48 0.0352 1.12 5.62 1.12 5.62 0 9-3.55 1.18-6.75 1.07-10.4 1-5.87-0.161-5.87-0.161-11.6 1v-3c-2.47 1.49-2.47 1.49-5 3v-6c1.75-0.648 3.5-1.29 5.25-1.94 0.975-0.36 1.95-0.719 2.95-1.09 4.57-1.59 8.18-2.09 13-2.04z" fill="#E8E7DF"></path>
<path transform="translate(428,894)" d="m0 0c2.31 0.33 4.62 0.66 7 1 0.33 1.65 0.66 3.3 1 5h2c1.67 3.33 3.33 6.67 5 10h-2v3c-0.99-0.33-1.98-0.66-3-1v-2h-2v3c-3.01 0.934-3.87 1.04-7 0v-2h-4c-0.0271-1.44-0.0465-2.87-0.0625-4.31-0.0116-0.801-0.0232-1.6-0.0352-2.43 0.0977-2.26 0.0977-2.26 1.1-5.26 1.98 0.495 1.98 0.495 4 1-0.506-2.17-1-4-2-6z" fill="#E8E7DF"></path>
<path transform="translate(783 980)" d="m0 0c1.17 0.0361 2.34 0.0722 3.55 0.109 0.892 0.0464 1.78 0.0928 2.7 0.141-0.99 0.33-1.98 0.66-3 1v2h2c2 4.12 2.18 7.45 2 12-3.3-0.33-6.6-0.66-10-1-0.33-0.99-0.66-1.98-1-3-2.31-0.33-4.62-0.66-7-1-0.313-3.45-0.484-5.34 1.59-8.19 3.2-2.41 5.19-2.22 9.16-2.06z" fill="#E8E5DF"></path>
<path transform="translate(1365,671)" d="m0 0c0.357 4.4 0.357 4.4-1 6.69-3.04 2-6.4 2.88-10 3.31-0.99-0.33-1.98-0.66-3-1v-3h-2c-0.33 0.99-0.66 1.98-1 3h-2v-3h-2c-0.186 1.21-0.186 1.21-0.375 2.44-0.206 0.846-0.412 1.69-0.625 2.56l-2 1c-0.465 1.9-0.465 1.9-0.625 4.06-0.124 1.3-0.247 2.6-0.375 3.94-0.99 0.33-1.98 0.66-3 1-0.589-7.22 1.86-11.2 6.06-16.7 7.01-5.52 13.6-7.1 21.9-4.31z" fill="#E8E7DF"></path>
<path transform="translate(1385,723)" d="m0 0h6v6h-4c-0.33 1.32-0.66 2.64-1 4h3v6h-3v5c-2.71 1.35-5.01 1.07-8 1v-8h2c-0.33-0.66-0.66-1.32-1-2-0.134-3.67-0.167-6.5 1-10h5v-2z" fill="#E8E5DF"></path>
<path transform="translate(313,746)" d="m0 0c0.99 0.33 1.98 0.66 3 1v2h6v14c-1.65-0.33-3.3-0.66-5-1v-2h-2v2h-3v-2h-2v3h-5v-8h2v2c0.66-0.33 1.32-0.66 2-1v-3c-0.66-0.33-1.32-0.66-2-1 0.66-0.66 1.32-1.32 2-2h4v-4z" fill="#E9E8E0"></path>
<path transform="translate(350,719)" d="m0 0c2.35 2.35 2.48 3.48 3.06 6.69 0.164 0.888 0.327 1.78 0.496 2.69 0.539 3.2 1.02 6.4 1.44 9.62-0.619 0.247-1.24 0.495-1.88 0.75-2.48 1.46-3.08 2.63-4.12 5.25h-2c-0.33 0.99-0.66 1.98-1 3-2.31 0.33-4.62 0.66-7 1-0.33-0.99-0.66-1.98-1-3 1.13-0.557 2.27-1.11 3.44-1.69 2.88-1.63 2.88-1.63 4.5-4.44 0.0761-3.5 0.069-7 0.043-10.5 0.0215-2.61 0.166-4.89 1.02-7.38 0.99-0.66 1.98-1.32 3-2z" fill="#E7E5DC"></path>
<path transform="translate(1595,1587)" d="m0 0c0.33 0.99 0.66 1.98 1 3-0.99 0.33-1.98 0.66-3 1 0.99 0.33 1.98 0.66 3 1v6c-3.32 1.99-5.8 2.24-9.64 2.2-1.07-0.00645-2.14-0.0129-3.24-0.0195-1.11-0.0168-2.22-0.0335-3.37-0.0508-1.13-0.00902-2.25-0.018-3.41-0.0273-2.78-0.0235-5.56-0.0564-8.34-0.0977v-2c-0.66-0.33-1.32-0.66-2-1 1-1 1-1 3.21-1.1 1.35 0.0174 1.35 0.0174 2.72 0.0352 0.896 0.00902 1.79 0.018 2.71 0.0273 1.16 0.0174 1.16 0.0174 2.35 0.0352h2 7c0.103-1.11 0.206-2.23 0.312-3.38 0.227-1.2 0.454-2.39 0.688-3.62 3.23-2.15 4.28-2.2 8-2z" fill="#E7E5DD"></path>
<path transform="translate(90,32)" d="m0 0v2h106v1c-40.3 0.33-80.5 0.66-122 1-0.33-0.66-0.66-1.32-1-2 5.64-2.44 11-2.19 17-2z" fill="#E8E5DF"></path>
<path transform="translate(256,661)" d="m0 0c8.42-0.306 15.6 0.808 23 5-0.33 0.99-0.66 1.98-1 3-5.28-0.66-10.6-1.32-16-2 2.48 0.99 2.48 0.99 5 2v3h-3v-2c-1.95-0.591-1.95-0.591-4-1-0.33 0.33-0.66 0.66-1 1h-3v-9z" fill="#E7E5DC"></path>
<path transform="translate(515,782)" d="m0 0h1c2.86 19.3 0.673 39.6 0 59h-2c-0.0253-7.76-0.0429-15.5-0.0549-23.3-0.00503-2.64-0.0119-5.28-0.0205-7.92-0.0121-3.79-0.0178-7.59-0.0222-11.4-0.00516-1.18-0.0103-2.36-0.0156-3.58-1.13e-4 -1.65-1.13e-4 -1.65-2.29e-4 -3.34-0.00222-0.968-0.00444-1.94-0.00673-2.93 0.11-2.34 0.453-4.33 1.12-6.57z" fill="#E8E7DF"></path>
<path transform="translate(578,666)" d="m0 0v5h-5v3c-1.29 0.504-2.58 1-3.88 1.5-0.719 0.278-1.44 0.557-2.18 0.844-1.95 0.656-1.95 0.656-3.95 0.656v3h-6v-4c1.65-0.33 3.3-0.66 5-1v-2.25c1.19-3.27 1.86-3.5 4.88-5 6.84-3.08 6.84-3.08 11.1-1.75z" fill="#E8E7DF"></path>
<path transform="translate(488,980)" d="m0 0h6c0.33 0.66 0.66 1.32 1 2 1.07-0.126 1.07-0.126 2.15-0.254 0.919-0.102 1.84-0.204 2.79-0.309 1.37-0.157 1.37-0.157 2.78-0.316 0.754-0.04 1.51-0.0799 2.29-0.121 1 1 1 1 1.06 4.06-0.0206 0.969-0.0412 1.94-0.0625 2.94h-8v2h-6v-4h-4v-6z" fill="#E8E5DF"></path>
<path transform="translate(882,803)" d="m0 0c2 1 2 1 2.69 2.56 0.312 2.44 0.312 2.44-0.312 6.38-0.611 4.02 0.41 5.65 2.62 9.06-0.312 2.81-0.312 2.81-1 5-1.32-0.33-2.64-0.66-4-1-0.33-1.65-0.66-3.3-1-5-2.31-0.33-4.62-0.66-7-1 0.99-0.33 1.98-0.66 3-1-0.776-3.07-0.776-3.07-3-5h4c-0.0412-0.763-0.0825-1.53-0.125-2.31 0.125-2.69 0.125-2.69 2.12-5.69h2v-2z" fill="#E9E8E0"></path>
<path transform="translate(982,843)" d="m0 0c2.1 5.69 3.45 11 4 17-1.65 0.33-3.3 0.66-5 1v-10c-2.97 0.342-2.97 0.342-6 1-0.33 0.66-0.66 1.32-1 2v-3h-2v-4c6.62-4 6.62-4 10-4z" fill="#E9E8E0"></path>
<path transform="translate(177,978)" d="m0 0c6.86 1.52 13.7 3.07 20.6 4.62 1.01 0.229 2.02 0.459 3.06 0.695 2.46 0.56 4.92 1.12 7.38 1.68v2c-15.7 0.369-15.7 0.369-23-2v-3h-8v-4z" fill="#E8E7DF"></path>
<path transform="translate(1493,32)" d="m0 0h11v2c1.65-0.66 3.3-1.32 5-2v3h-78v-1h62v-2z" fill="#E8E5DF"></path>
<path transform="translate(973,833)" d="m0 0h1v9h-2c-0.186 1.33-0.186 1.33-0.375 2.69-0.569 3.02-1.39 5.52-2.62 8.31h-4c-0.054-2.1-0.0928-4.21-0.125-6.31-0.0232-1.17-0.0464-2.34-0.0703-3.55 0.195-3.14 0.195-3.14 2.2-6.14h2c0.33-0.66 0.66-1.32 1-2 0.33 0.99 0.66 1.98 1 3v-3h2v-2z" fill="#E9E8E0"></path>
<path transform="translate(261,723)" d="m0 0c1.35 2.71 1.07 5.01 1 8-2.88 0.961-4.7 1.11-7.69 1.06-1.21-0.0135-1.21-0.0135-2.45-0.0273-0.922-0.0174-0.922-0.0174-1.86-0.0352-0.356-5.33-0.356-5.33 1-7.88 3.25-1.83 6.31-1.31 10-1.12z" fill="#E8E5DF"></path>
<path transform="translate(514 988)" d="m0 0c1.37 0.0174 1.37 0.0174 2.78 0.0352 0.919 0.00902 1.84 0.018 2.79 0.0273 0.71 0.0116 1.42 0.0232 2.15 0.0352 1 2 1 2 1 8h-12c-0.0424-2.33-0.0409-4.67 0-7 1-1 1-1 3.29-1.1z" fill="#E8E5DF"></path>
<path transform="translate(343,675)" d="m0 0c2 1 2 1 3.12 4.06 1.56 6.83 1.09 14 1.01 20.9-0.01 1.46-0.0192 2.91-0.0273 4.37-0.0219 3.54-0.0563 7.09-0.0977 10.6-2.19-3.29-2.35-4.73-2.63-8.59-0.0838-1.11-0.168-2.23-0.254-3.38-0.0786-1.17-0.157-2.33-0.238-3.53-0.0864-1.13-0.173-2.27-0.262-3.44-0.508-7.03-0.726-14-0.613-21.1z" fill="#E8E7DF"></path>
<path transform="translate(348,942)" d="m0 0h3v10h-4v4h-6v-5c0.99-0.33 1.98-0.66 3-1 0.365-1.32 0.694-2.66 1-4 1.38-2.25 1.38-2.25 3-4z" fill="#E8E5DF"></path>
<path transform="translate(535,978)" d="m0 0c3.33 0.667 6.67 1.33 10 2 1.4 0.28 1.4 0.28 2.83 0.566 0.715 0.143 1.43 0.286 2.17 0.434v2c0.66 0.33 1.32 0.66 2 1v5c-1.32 0.33-2.64 0.66-4 1v-7c-0.144 0.598-0.289 1.2-0.438 1.81-0.45 1.75-0.991 3.47-1.56 5.19h-1v-7h-9c-0.33-1.65-0.66-3.3-1-5z" fill="#E8E7DF"></path>
<path transform="translate(1553,1554)" d="m0 0h10c-0.33 3.3-0.66 6.6-1 10-1.32-0.33-2.64-0.66-4-1l-1 1h-4v-10z" fill="#E8E5DE"></path>
<path transform="translate(835,884)" d="m0 0c1.32 0.66 2.64 1.32 4 2l-2 2c-0.33 0.66-0.66 1.32-1 2h5c-1.32 0.33-2.64 0.66-4 1 0.33 2.31 0.66 4.62 1 7-0.99 0.495-0.99 0.495-2 1v2h-2v2h-5c0.66-0.33 1.32-0.66 2-1 0.467-2.13 0.467-2.13 0.625-4.56 0.0748-0.826 0.15-1.65 0.227-2.5 0.049-0.638 0.098-1.28 0.148-1.93h2c0.33-2.97 0.66-5.94 1-9z" fill="#E9E8E0"></path>
<path transform="translate(887,791)" d="m0 0h5c-0.0412 1.22-0.0825 2.43-0.125 3.69-0.0189 3.57 0.712 6.02 2.12 9.31-0.33 0.99-0.66 1.98-1 3-2.97-0.495-2.97-0.495-6-1v-15z" fill="#E9E8E0"></path>
<path transform="translate(1534,1596)" d="m0 0h31c-0.33 0.66-0.66 1.32-1 2h-7v2c-4.85 0.0951-9.24-0.0476-14-1-3-0.0866-6-0.0589-9 0v-3z" fill="#E7E5DC"></path>
<path transform="translate(165,822)" d="m0 0c2.69 0.176 5.33 0.618 8 1v2c5.94-0.495 5.94-0.495 12-1v2h-2c0.33 0.99 0.66 1.98 1 3-1.32-0.33-2.64-0.66-4-1v-2c-1.14 0.464-1.14 0.464-2.31 0.938-1.88 0.741-3.77 1.42-5.69 2.06v-2c-1.32-0.33-2.64-0.66-4-1v6h-2c-0.361-1.48-0.714-2.96-1.06-4.44-0.197-0.824-0.394-1.65-0.598-2.5-0.168-1.02-0.168-1.02-0.34-2.07 0.33-0.33 0.66-0.66 1-1z" fill="#E9E8E0"></path>
<path transform="translate(1210,922)" d="m0 0v7h-11v-6c3.73-0.879 7.17-1.09 11-1z" fill="#E8E5DF"></path>
<path transform="translate(174 817)" d="m0 0c6.53 3.99 6.53 3.99 9.25 6.38v2h-10v-2c-0.99-0.33-1.98-0.66-3-1v-2c-0.33-0.99-0.66-1.98-1-3 3-1 3-1 4.75-0.375z" fill="#E8E7DF"></path>
<path transform="translate(1549,40)" d="m0 0h1v6h5v6h-6v-5h-5v-5h5v-2z" fill="#E8E5DF"></path>
<path transform="translate(308,777)" d="m0 0h6c0.0808 2.12 0.139 4.25 0.188 6.38 0.0348 1.18 0.0696 2.37 0.105 3.59-0.0967 1-0.193 2.01-0.293 3.04-0.99 0.66-1.98 1.32-3 2l-1-2h2v-2c-0.639-0.289-1.28-0.577-1.94-0.875-2.06-1.12-2.06-1.12-3.06-3.12 0.66-0.99 1.32-1.98 2-3-0.308-2.15-0.308-2.15-1-4z" fill="#E8E5DF"></path>
<path transform="translate(152,989)" d="m0 0h9c0.0425 2 0.0408 4 0 6-1 1-1 1-4.5 1.12-3.5-0.125-3.5-0.125-4.5-1.12-0.0408-2-0.0425-4 0-6z" fill="#E8E5DF"></path>
<path transform="translate(91,937)" d="m0 0h6v10h-6v-10z" fill="#E8E5DF"></path>
<path transform="translate(119,910)" d="m0 0c0.66 0.33 1.32 0.66 2 1v45c-0.99 0.495-0.99 0.495-2 1 0.00524-1.05 0.0105-2.1 0.0159-3.18 0.0182-3.92 0.0296-7.84 0.0391-11.8 5e-3 -1.69 0.0118-3.38 0.0205-5.07 0.0122-2.44 0.0178-4.89 0.0222-7.33 0.00516-0.746 0.0103-1.49 0.0156-2.26 3.82e-4 -3.64-0.169-7.14-0.682-10.7-0.431-3.65-0.431-3.65 0.569-6.65z" fill="#E8E5DF"></path>
<path transform="translate(730,644)" d="m0 0h8v6h-2v2h-6v-8z" fill="#E8E5DF"></path>
<path transform="translate(561,671)" d="m0 0c0.33 1.32 0.66 2.64 1 4-1.65 0.33-3.3 0.66-5 1-0.0619 0.577-0.124 1.15-0.188 1.75-1.17 3.25-2.93 4.42-5.81 6.25-2.81 0.25-2.81 0.25-5 0 1.38-2 1.38-2 3-4h2c0.33-0.99 0.66-1.98 1-3 2.56-1.19 2.56-1.19 5-2v-2c1.32-0.66 2.64-1.32 4-2z" fill="#E7E5DC"></path>
<path transform="translate(419,917)" d="m0 0h6c0.33 2.97 0.66 5.94 1 9h-6c-0.33-2.97-0.66-5.94-1-9z" fill="#E8E5DF"></path>
<path transform="translate(403,893)" d="m0 0h6c0.33 2.97 0.66 5.94 1 9h-6c-0.33-2.97-0.66-5.94-1-9z" fill="#E8E5DF"></path>
<path transform="translate(131,813)" d="m0 0h6c0.33 2.97 0.66 5.94 1 9h-6c-0.33-2.97-0.66-5.94-1-9z" fill="#E8E5DF"></path>
<path transform="translate(724,657)" d="m0 0h6v6l-2 1c0.66 0.33 1.32 0.66 2 1v3c-1.67 0.0427-3.33 0.0406-5 0-1-1-1-1-1.1-3.29 0.0116-0.917 0.0232-1.83 0.0352-2.78 0.00902-0.919 0.018-1.84 0.0273-2.79 0.0116-0.71 0.0232-1.42 0.0352-2.15z" fill="#E8E5DF"></path>
<path transform="translate(427,933)" d="m0 0h7v9h-6c-0.33-2.97-0.66-5.94-1-9z" fill="#E8E5DF"></path>
<path transform="translate(963,979)" d="m0 0c0.33 0.99 0.66 1.98 1 3h6v2c0.99 0.33 1.98 0.66 3 1-0.33 1.32-0.66 2.64-1 4h-2c-0.33 0.66-0.66 1.32-1 2-0.619-0.639-1.24-1.28-1.88-1.94-1.95-2.1-1.95-2.1-4.12-3.06v-7z" fill="#E9E8E0"></path>
<path transform="translate(409,857)" d="m0 0h2c0.66 0.99 1.32 1.98 2 3 0.99-0.33 1.98-0.66 3-1 0.33 2.97 0.66 5.94 1 9-0.763-0.165-1.53-0.33-2.31-0.5-2.72-0.591-2.72-0.591-5.69-0.5-0.749-3.66-1.24-6.42 0-10z" fill="#E8E6DF"></path>
<path transform="translate(1376 781)" d="m0 0c1.45 0.0309 1.45 0.0309 2.94 0.0625v8h-7c-0.0424-2.33-0.0409-4.67 0-7 1-1 1-1 4.06-1.06z" fill="#E8E5DF"></path>
<path transform="translate(244,880)" d="m0 0c2 1 2 1 2.63 2.85 0.162 0.731 0.325 1.46 0.492 2.21 0.168 0.733 0.335 1.47 0.508 2.22 0.121 0.566 0.242 1.13 0.367 1.71 0.66-0.33 1.32-0.66 2-1 2-0.04 4-0.0435 6 0-0.66 1.32-1.32 2.64-2 4-0.99-0.33-1.98-0.66-3-1-0.33 0.33-0.66 0.66-1 1h-4c-0.33 0.66-0.66 1.32-1 2-1.15-9.41-1.15-9.41-1-14z" fill="#E9E8E0"></path>
<path transform="translate(656,817)" d="m0 0h8v7c-5.75 0.125-5.75 0.125-8-1v-6z" fill="#E8E5DF"></path>
<path transform="translate(277,626)" d="m0 0c8.06-0.129 16 0.203 24 1 0.33 1.65 0.66 3.3 1 5l-1-2c-0.99 0.33-1.98 0.66-3 1-0.33-0.33-0.66-0.66-1-1-1.47-0.188-2.96-0.324-4.44-0.438-5.28-0.473-10.4-1.43-15.6-2.56v-1z" fill="#E8E5DF"></path>
<path transform="translate(695,974)" d="m0 0v2h-3v4c-4.46 0.495-4.46 0.495-9 1-0.33-1.32-0.66-2.64-1-4 4.23-1.87 8.35-3 13-3z" fill="#E8E7DF"></path>
<path transform="translate(40,1555)" d="m0 0c0.959 0.278 0.959 0.278 1.94 0.562 1.02 0.217 1.02 0.217 2.06 0.438 0.33-0.33 0.66-0.66 1-1h3c2 2 2 2 2.25 5-0.25 3-0.25 3-2.25 5v-4h-3v-3h-2v3h-3v-6z" fill="#E8E5DF"></path>
<path transform="translate(637,626)" d="m0 0c6.77-0.102 13.3-0.0303 20 1-0.33 0.99-0.66 1.98-1 3-6.58-0.41-12.7-0.866-19-3v-1z" fill="#E8E5DF"></path>
<path transform="translate(194,989)" d="m0 0c2.31 0.33 4.62 0.66 7 1 0.0427 1.67 0.0406 3.33 0 5-1 1-1 1-4.06 1.06-1.45-0.0309-1.45-0.0309-2.94-0.0625v-7z" fill="#E8E5DF"></path>
<path transform="translate(1165,945)" d="m0 0h5v11c-4.5-2.25-4.5-2.25-6-6 0.99-0.33 1.98-0.66 3-1v-2h-2v-2z" fill="#E8E5DF"></path>
<path transform="translate(550,684)" d="m0 0c-0.33 2.31-0.66 4.62-1 7h-7c0.915-5.31 2.53-7 8-7z" fill="#E8E7DF"></path>
<path transform="translate(935,799)" d="m0 0h4c0.688 2.81 0.688 2.81 1 6-1.44 1.88-1.44 1.88-3 3-0.99-0.66-1.98-1.32-3-2 0.33-2.31 0.66-4.62 1-7z" fill="#E9E8E0"></path>
<path transform="translate(355,941)" d="m0 0c0.959 0.278 0.959 0.278 1.94 0.562 1.02 0.217 1.02 0.217 2.06 0.438 0.33-0.33 0.66-0.66 1-1h3v2h-2v4h-6v-6z" fill="#E8E5DF"></path>
<path transform="translate(1263,644)" d="m0 0h8c-0.66 0.66-1.32 1.32-2 2 2.64 0.33 5.28 0.66 8 1v1h-22v-1c2.64-0.33 5.28-0.66 8-1v-2z" fill="#E8E5DF"></path>
<path transform="translate(1557,1560)" d="m0 0 2 2c0.99 0.66 1.98 1.32 3 2v-4c1.32 0.33 2.64 0.66 4 1-0.33 2.64-0.66 5.28-1 8-0.33-1.32-0.66-2.64-1-4-0.722 0.186-1.44 0.371-2.19 0.562-2.94 0.457-4.95 0.173-7.81-0.562 0.99-0.33 1.98-0.66 3-1v-4z" fill="#E9E8E0"></path>
<path transform="translate(800,989)" d="m0 0h6v6h-6v-6z" fill="#E8E5DF"></path>
<path transform="translate(476,976)" d="m0 0h6v6h-6v-6z" fill="#E8E5DF"></path>
<path transform="translate(483,973)" d="m0 0h6v6h-6v-6z" fill="#E8E5DF"></path>
<path transform="translate(460,968)" d="m0 0h6v6h-6v-6z" fill="#E8E5DF"></path>
<path transform="translate(412,912)" d="m0 0h6v6h-6v-6z" fill="#E8E5DF"></path>
<path transform="translate(644,712)" d="m0 0h6v6h-6v-6z" fill="#E8E5DF"></path>
<path transform="translate(644,704)" d="m0 0h6v6h-6v-6z" fill="#E8E5DF"></path>
<path transform="translate(1518,644)" d="m0 0h6v6h-6v-6z" fill="#E8E5DF"></path>
<path transform="translate(1488,644)" d="m0 0h6v6h-6v-6z" fill="#E8E5DF"></path>
<path transform="translate(722,636)" d="m0 0h6v6h-6v-6z" fill="#E8E5DF"></path>
<path transform="translate(108,948)" d="m0 0h3c-0.0206 1.05-0.0413 2.1-0.0625 3.19 0.0515 3.14 0.328 5.78 1.06 8.81h-4v-12z" fill="#E8E5DF"></path>
<path transform="translate(914,843)" d="m0 0c4.29 0.33 8.58 0.66 13 1v2c-1.46 0.363-2.92 0.715-4.38 1.06-1.22 0.296-1.22 0.296-2.46 0.598-2.16 0.34-2.16 0.34-4.16-0.66v-3c-0.66-0.33-1.32-0.66-2-1z" fill="#E8E5DF"></path>
<path transform="translate(310,974)" d="m0 0v3h-2v3h-7l-1-2 1-2h3c0.33 0.99 0.66 1.98 1 3v-4c3-1 3-1 5-1z" fill="#E8E6DF"></path>
<path transform="translate(918,744)" d="m0 0h1c0.125 3.38 0.125 3.38 0 7-0.66 0.66-1.32 1.32-2 2h-3v-6c1.32-0.33 2.64-0.66 4-1v-2z" fill="#E8E7DF"></path>
<path transform="translate(1405,632)" d="m0 0c1.58 0.142 3.17 0.289 4.75 0.438 0.882 0.0812 1.76 0.162 2.67 0.246 2.27 0.279 4.38 0.704 6.58 1.32v2c-6.93-0.495-6.93-0.495-14-1v-3z" fill="#E8E5DF"></path>
<path transform="translate(67,1567)" d="m0 0c2.47 0.99 2.47 0.99 5 2v-2c0.99 0.33 1.98 0.66 3 1-0.33 0.66-0.66 1.32-1 2-5.39 1.33-10.6 1.03-16 0v-1h9v-2z" fill="#E8E5DF"></path>
<path transform="translate(434,895)" d="m0 0c2 3 2 3 2 5h2c2.09 4.43 2.09 4.43 1.62 7.31-0.206 0.557-0.413 1.11-0.625 1.69-0.66-0.66-1.32-1.32-2-2 0.33-0.99 0.66-1.98 1-3-1.32-0.66-2.64-1.32-4-2v-7z" fill="#E7E5DD"></path>
<path transform="translate(897,784)" d="m0 0h5v6h-5v-6z" fill="#E8E7DF"></path>
<path transform="translate(531,637)" d="m0 0h6v2c1.65-0.33 3.3-0.66 5-1v2c-7.62 1-7.62 1-11 1v-4z" fill="#E8E5DF"></path>
<path transform="translate(139,805)" d="m0 0c0.33 0.66 0.66 1.32 1 2h4c0.33-0.66 0.66-1.32 1-2 1.25 2.49 0.777 3.41 0 6h-6v-6z" fill="#E8E5DF"></path>
<path transform="translate(946,760)" d="m0 0h3c0.382 1.66 0.714 3.32 1 5-1 1-1 1-3.56 1.06-1.21-0.0309-1.21-0.0309-2.44-0.0625 0.875-4.88 0.875-4.88 2-6z" fill="#E9E8E0"></path>
<path transform="translate(531,632)" d="m0 0h6v2c1.32 0.33 2.64 0.66 4 1-3.44 0.625-6.49 1-10 1v-4z" fill="#E8E5DF"></path>
<path transform="translate(173,822)" d="m0 0h9c0.33 0.99 0.66 1.98 1 3h-10v-3z" fill="#E7E5DC"></path>
<path transform="translate(911,852)" d="m0 0v7c-1.32 0.33-2.64 0.66-4 1-0.188-2.88-0.188-2.88 0-6 3-2 3-2 4-2z" fill="#E8E7DF"></path>
</svg><style>@media (prefers-color-scheme: light) { :root { filter: none; } }
</style></svg>