<?xml version="1.0" standalone="no"?>
<!DOCTYPE svg PUBLIC "-//W3C//DTD SVG 20010904//EN"
 "http://www.w3.org/TR/2001/REC-SVG-20010904/DTD/svg10.dtd">
<svg version="1.0" xmlns="http://www.w3.org/2000/svg"
 width="700.000000pt" height="700.000000pt" viewBox="0 0 700.000000 700.000000"
 preserveAspectRatio="xMidYMid meet">
<metadata>
Created by potrace 1.14, written by Peter Selinger 2001-2017
</metadata>
<g transform="translate(0.000000,700.000000) scale(0.100000,-0.100000)"
fill="#000000" stroke="none">
<path d="M0 3500 l0 -3500 3500 0 3500 0 0 3500 0 3500 -3500 0 -3500 0 0
-3500z m1305 680 c39 -10 96 -25 127 -35 68 -19 64 -7 73 -231 7 -164 7 -164
-49 -164 -18 0 -25 10 -40 56 -27 86 -82 194 -117 231 -49 50 -108 73 -187 73
-95 0 -148 -28 -184 -100 -30 -58 -34 -85 -17 -143 19 -69 82 -124 289 -251
194 -119 310 -220 352 -305 20 -40 23 -62 23 -166 0 -117 -1 -122 -34 -188
-42 -83 -126 -164 -214 -206 -173 -83 -357 -82 -637 2 -47 14 -101 29 -120 34
l-35 9 -5 199 c-3 110 -4 206 -2 213 6 17 50 26 66 13 7 -6 26 -46 41 -89 15
-42 40 -98 56 -123 46 -72 148 -164 223 -200 59 -28 73 -31 129 -26 58 5 133
31 167 59 42 35 59 136 35 210 -28 85 -53 107 -300 259 -152 93 -194 125 -276
208 -58 60 -68 76 -84 134 -24 88 -16 196 18 269 50 108 179 219 297 257 105
33 278 33 405 1z m3046 20 c22 -12 44 -52 70 -129 11 -31 117 -301 236 -600
156 -393 224 -553 246 -578 33 -38 84 -67 137 -78 42 -9 60 -22 60 -44 -1 -41
-1 -41 -421 -43 l-404 -2 0 39 c0 39 1 40 45 47 25 4 55 10 67 13 65 16 70 81
15 216 l-38 94 -224 0 c-188 0 -224 -2 -231 -15 -25 -48 -62 -162 -66 -207 -5
-46 -3 -54 20 -77 16 -16 37 -26 56 -26 50 0 81 -17 81 -44 0 -14 -4 -28 -10
-31 -5 -3 -123 -7 -262 -8 l-253 -2 -3 28 c-4 36 11 54 51 63 45 9 99 38 122
66 46 52 70 104 295 613 49 110 123 277 165 370 42 94 90 202 106 240 16 39
39 78 50 88 24 19 61 22 90 7z m-1456 -25 c263 -73 466 -279 537 -544 28 -107
28 -277 -1 -386 -36 -135 -94 -238 -186 -331 -136 -138 -270 -195 -495 -214
-215 -19 -394 6 -537 74 -63 30 -94 54 -168 129 -60 61 -102 114 -124 157 -18
36 -37 67 -41 70 -5 3 -19 44 -32 90 -19 72 -23 108 -22 235 0 134 3 158 27
230 14 44 42 106 61 138 54 89 155 204 214 244 72 48 191 98 277 117 96 21
403 16 490 -9z m3388 -33 c103 -28 169 -65 223 -125 114 -127 144 -329 70
-475 -31 -62 -132 -157 -198 -187 -103 -47 -163 -57 -352 -62 -99 -2 -182 -6
-185 -9 -4 -3 -6 -85 -6 -182 0 -148 3 -182 17 -209 23 -41 74 -71 132 -79 26
-4 54 -13 62 -21 17 -18 18 -47 2 -60 -8 -5 -182 -6 -418 -3 l-405 5 -3 24
c-5 30 20 51 60 51 15 0 28 4 28 9 0 5 12 11 28 14 35 7 68 36 82 71 15 40 14
1077 -2 1110 -13 31 -82 66 -127 66 -48 0 -71 16 -71 49 0 15 2 30 5 33 3 3
225 4 493 4 466 -2 490 -3 565 -24z"/>
<path d="M4130 3659 c0 -24 23 -21 28 4 2 10 -3 17 -12 17 -10 0 -16 -9 -16
-21z"/>
<path d="M4124 3593 c-29 -4 -33 -11 -93 -155 -34 -83 -65 -164 -68 -180 l-5
-28 182 0 182 0 -7 28 c-3 15 -30 90 -59 167 -29 77 -56 148 -59 158 -6 17
-12 18 -73 10z"/>
<path d="M2590 4109 c-166 -21 -245 -99 -304 -301 -74 -257 -55 -662 40 -850
25 -49 74 -104 121 -135 62 -41 197 -54 296 -28 112 29 178 91 222 209 90 241
98 579 19 828 -39 124 -71 175 -138 223 -68 48 -156 67 -256 54z"/>
<path d="M5893 4060 c-57 -34 -58 -39 -58 -347 0 -279 0 -283 22 -305 33 -33
135 -38 190 -9 52 26 99 82 118 141 58 177 37 403 -44 480 -62 59 -167 78
-228 40z"/>
</g>
</svg>
